<?xml version="1.0" encoding="utf-8" standalone="no"?>
<!DOCTYPE svg PUBLIC "-//W3C//DTD SVG 1.1//EN"
  "http://www.w3.org/Graphics/SVG/1.1/DTD/svg11.dtd">
<!-- Created with matplotlib (https://matplotlib.org/) -->
<svg height="864pt" version="1.1" viewBox="0 0 864 864" width="864pt" xmlns="http://www.w3.org/2000/svg" xmlns:xlink="http://www.w3.org/1999/xlink">
 <metadata>
  <rdf:RDF xmlns:cc="http://creativecommons.org/ns#" xmlns:dc="http://purl.org/dc/elements/1.1/" xmlns:rdf="http://www.w3.org/1999/02/22-rdf-syntax-ns#">
   <cc:Work>
    <dc:type rdf:resource="http://purl.org/dc/dcmitype/StillImage"/>
    <dc:date>2021-03-18T13:04:36.084052</dc:date>
    <dc:format>image/svg+xml</dc:format>
    <dc:creator>
     <cc:Agent>
      <dc:title>Matplotlib v3.3.2, https://matplotlib.org/</dc:title>
     </cc:Agent>
    </dc:creator>
   </cc:Work>
  </rdf:RDF>
 </metadata>
 <defs>
  <style type="text/css">*{stroke-linecap:butt;stroke-linejoin:round;}</style>
 </defs>
 <g id="figure_1">
  <g id="patch_1">
   <path d="M 0 864 
L 864 864 
L 864 0 
L 0 0 
z
" style="fill:none;"/>
  </g>
  <g id="axes_1">
   <g id="patch_2">
    <path d="M 108 756 
L 777.6 756 
L 777.6 103.68 
L 108 103.68 
z
" style="fill:#ffffff;"/>
   </g>
   <g id="matplotlib.axis_1">
    <g id="xtick_1">
     <g id="line2d_1">
      <path clip-path="url(#p0d3c8eaec1)" d="M 197.744573 756 
L 197.744573 103.68 
" style="fill:none;stroke:#b0b0b0;stroke-linecap:square;stroke-width:0.8;"/>
     </g>
     <g id="line2d_2">
      <defs>
       <path d="M 0 0 
L 0 3.5 
" id="m3e0c851eea" style="stroke:#000000;stroke-width:0.8;"/>
      </defs>
      <g>
       <use style="stroke:#000000;stroke-width:0.8;" x="197.744573" xlink:href="#m3e0c851eea" y="756"/>
      </g>
     </g>
     <g id="text_1">
      <!-- −8 -->
      <g transform="translate(186.687933 774.397656)scale(0.15 -0.15)">
       <defs>
        <path d="M 10.59375 35.5 
L 73.1875 35.5 
L 73.1875 27.203125 
L 10.59375 27.203125 
z
" id="DejaVuSans-8722"/>
        <path d="M 31.78125 34.625 
Q 24.75 34.625 20.71875 30.859375 
Q 16.703125 27.09375 16.703125 20.515625 
Q 16.703125 13.921875 20.71875 10.15625 
Q 24.75 6.390625 31.78125 6.390625 
Q 38.8125 6.390625 42.859375 10.171875 
Q 46.921875 13.96875 46.921875 20.515625 
Q 46.921875 27.09375 42.890625 30.859375 
Q 38.875 34.625 31.78125 34.625 
z
M 21.921875 38.8125 
Q 15.578125 40.375 12.03125 44.71875 
Q 8.5 49.078125 8.5 55.328125 
Q 8.5 64.0625 14.71875 69.140625 
Q 20.953125 74.21875 31.78125 74.21875 
Q 42.671875 74.21875 48.875 69.140625 
Q 55.078125 64.0625 55.078125 55.328125 
Q 55.078125 49.078125 51.53125 44.71875 
Q 48 40.375 41.703125 38.8125 
Q 48.828125 37.15625 52.796875 32.3125 
Q 56.78125 27.484375 56.78125 20.515625 
Q 56.78125 9.90625 50.3125 4.234375 
Q 43.84375 -1.421875 31.78125 -1.421875 
Q 19.734375 -1.421875 13.25 4.234375 
Q 6.78125 9.90625 6.78125 20.515625 
Q 6.78125 27.484375 10.78125 32.3125 
Q 14.796875 37.15625 21.921875 38.8125 
z
M 18.3125 54.390625 
Q 18.3125 48.734375 21.84375 45.5625 
Q 25.390625 42.390625 31.78125 42.390625 
Q 38.140625 42.390625 41.71875 45.5625 
Q 45.3125 48.734375 45.3125 54.390625 
Q 45.3125 60.0625 41.71875 63.234375 
Q 38.140625 66.40625 31.78125 66.40625 
Q 25.390625 66.40625 21.84375 63.234375 
Q 18.3125 60.0625 18.3125 54.390625 
z
" id="DejaVuSans-56"/>
       </defs>
       <use xlink:href="#DejaVuSans-8722"/>
       <use x="83.789062" xlink:href="#DejaVuSans-56"/>
      </g>
     </g>
    </g>
    <g id="xtick_2">
     <g id="line2d_3">
      <path clip-path="url(#p0d3c8eaec1)" d="M 335.099339 756 
L 335.099339 103.68 
" style="fill:none;stroke:#b0b0b0;stroke-linecap:square;stroke-width:0.8;"/>
     </g>
     <g id="line2d_4">
      <g>
       <use style="stroke:#000000;stroke-width:0.8;" x="335.099339" xlink:href="#m3e0c851eea" y="756"/>
      </g>
     </g>
     <g id="text_2">
      <!-- −6 -->
      <g transform="translate(324.042698 774.397656)scale(0.15 -0.15)">
       <defs>
        <path d="M 33.015625 40.375 
Q 26.375 40.375 22.484375 35.828125 
Q 18.609375 31.296875 18.609375 23.390625 
Q 18.609375 15.53125 22.484375 10.953125 
Q 26.375 6.390625 33.015625 6.390625 
Q 39.65625 6.390625 43.53125 10.953125 
Q 47.40625 15.53125 47.40625 23.390625 
Q 47.40625 31.296875 43.53125 35.828125 
Q 39.65625 40.375 33.015625 40.375 
z
M 52.59375 71.296875 
L 52.59375 62.3125 
Q 48.875 64.0625 45.09375 64.984375 
Q 41.3125 65.921875 37.59375 65.921875 
Q 27.828125 65.921875 22.671875 59.328125 
Q 17.53125 52.734375 16.796875 39.40625 
Q 19.671875 43.65625 24.015625 45.921875 
Q 28.375 48.1875 33.59375 48.1875 
Q 44.578125 48.1875 50.953125 41.515625 
Q 57.328125 34.859375 57.328125 23.390625 
Q 57.328125 12.15625 50.6875 5.359375 
Q 44.046875 -1.421875 33.015625 -1.421875 
Q 20.359375 -1.421875 13.671875 8.265625 
Q 6.984375 17.96875 6.984375 36.375 
Q 6.984375 53.65625 15.1875 63.9375 
Q 23.390625 74.21875 37.203125 74.21875 
Q 40.921875 74.21875 44.703125 73.484375 
Q 48.484375 72.75 52.59375 71.296875 
z
" id="DejaVuSans-54"/>
       </defs>
       <use xlink:href="#DejaVuSans-8722"/>
       <use x="83.789062" xlink:href="#DejaVuSans-54"/>
      </g>
     </g>
    </g>
    <g id="xtick_3">
     <g id="line2d_5">
      <path clip-path="url(#p0d3c8eaec1)" d="M 472.454105 756 
L 472.454105 103.68 
" style="fill:none;stroke:#b0b0b0;stroke-linecap:square;stroke-width:0.8;"/>
     </g>
     <g id="line2d_6">
      <g>
       <use style="stroke:#000000;stroke-width:0.8;" x="472.454105" xlink:href="#m3e0c851eea" y="756"/>
      </g>
     </g>
     <g id="text_3">
      <!-- −4 -->
      <g transform="translate(461.397464 774.397656)scale(0.15 -0.15)">
       <defs>
        <path d="M 37.796875 64.3125 
L 12.890625 25.390625 
L 37.796875 25.390625 
z
M 35.203125 72.90625 
L 47.609375 72.90625 
L 47.609375 25.390625 
L 58.015625 25.390625 
L 58.015625 17.1875 
L 47.609375 17.1875 
L 47.609375 0 
L 37.796875 0 
L 37.796875 17.1875 
L 4.890625 17.1875 
L 4.890625 26.703125 
z
" id="DejaVuSans-52"/>
       </defs>
       <use xlink:href="#DejaVuSans-8722"/>
       <use x="83.789062" xlink:href="#DejaVuSans-52"/>
      </g>
     </g>
    </g>
    <g id="xtick_4">
     <g id="line2d_7">
      <path clip-path="url(#p0d3c8eaec1)" d="M 609.808871 756 
L 609.808871 103.68 
" style="fill:none;stroke:#b0b0b0;stroke-linecap:square;stroke-width:0.8;"/>
     </g>
     <g id="line2d_8">
      <g>
       <use style="stroke:#000000;stroke-width:0.8;" x="609.808871" xlink:href="#m3e0c851eea" y="756"/>
      </g>
     </g>
     <g id="text_4">
      <!-- −2 -->
      <g transform="translate(598.75223 774.397656)scale(0.15 -0.15)">
       <defs>
        <path d="M 19.1875 8.296875 
L 53.609375 8.296875 
L 53.609375 0 
L 7.328125 0 
L 7.328125 8.296875 
Q 12.9375 14.109375 22.625 23.890625 
Q 32.328125 33.6875 34.8125 36.53125 
Q 39.546875 41.84375 41.421875 45.53125 
Q 43.3125 49.21875 43.3125 52.78125 
Q 43.3125 58.59375 39.234375 62.25 
Q 35.15625 65.921875 28.609375 65.921875 
Q 23.96875 65.921875 18.8125 64.3125 
Q 13.671875 62.703125 7.8125 59.421875 
L 7.8125 69.390625 
Q 13.765625 71.78125 18.9375 73 
Q 24.125 74.21875 28.421875 74.21875 
Q 39.75 74.21875 46.484375 68.546875 
Q 53.21875 62.890625 53.21875 53.421875 
Q 53.21875 48.921875 51.53125 44.890625 
Q 49.859375 40.875 45.40625 35.40625 
Q 44.1875 33.984375 37.640625 27.21875 
Q 31.109375 20.453125 19.1875 8.296875 
z
" id="DejaVuSans-50"/>
       </defs>
       <use xlink:href="#DejaVuSans-8722"/>
       <use x="83.789062" xlink:href="#DejaVuSans-50"/>
      </g>
     </g>
    </g>
    <g id="xtick_5">
     <g id="line2d_9">
      <path clip-path="url(#p0d3c8eaec1)" d="M 747.163636 756 
L 747.163636 103.68 
" style="fill:none;stroke:#b0b0b0;stroke-linecap:square;stroke-width:0.8;"/>
     </g>
     <g id="line2d_10">
      <g>
       <use style="stroke:#000000;stroke-width:0.8;" x="747.163636" xlink:href="#m3e0c851eea" y="756"/>
      </g>
     </g>
     <g id="text_5">
      <!-- 0 -->
      <g transform="translate(742.391761 774.397656)scale(0.15 -0.15)">
       <defs>
        <path d="M 31.78125 66.40625 
Q 24.171875 66.40625 20.328125 58.90625 
Q 16.5 51.421875 16.5 36.375 
Q 16.5 21.390625 20.328125 13.890625 
Q 24.171875 6.390625 31.78125 6.390625 
Q 39.453125 6.390625 43.28125 13.890625 
Q 47.125 21.390625 47.125 36.375 
Q 47.125 51.421875 43.28125 58.90625 
Q 39.453125 66.40625 31.78125 66.40625 
z
M 31.78125 74.21875 
Q 44.046875 74.21875 50.515625 64.515625 
Q 56.984375 54.828125 56.984375 36.375 
Q 56.984375 17.96875 50.515625 8.265625 
Q 44.046875 -1.421875 31.78125 -1.421875 
Q 19.53125 -1.421875 13.0625 8.265625 
Q 6.59375 17.96875 6.59375 36.375 
Q 6.59375 54.828125 13.0625 64.515625 
Q 19.53125 74.21875 31.78125 74.21875 
z
" id="DejaVuSans-48"/>
       </defs>
       <use xlink:href="#DejaVuSans-48"/>
      </g>
     </g>
    </g>
    <g id="text_6">
     <!-- $Y$ -->
     <g transform="translate(438.15 792.914844)scale(0.15 -0.15)">
      <defs>
       <path d="M 6.296875 72.90625 
L 16.890625 72.90625 
L 30.515625 42.921875 
L 56.5 72.90625 
L 67.578125 72.90625 
L 34.515625 34.71875 
L 27.78125 0 
L 17.921875 0 
L 24.609375 34.71875 
z
" id="DejaVuSans-Oblique-89"/>
      </defs>
      <use transform="translate(0 0.09375)" xlink:href="#DejaVuSans-Oblique-89"/>
     </g>
    </g>
   </g>
   <g id="matplotlib.axis_2">
    <g id="ytick_1">
     <g id="line2d_11">
      <path clip-path="url(#p0d3c8eaec1)" d="M 108 691.474523 
L 777.6 691.474523 
" style="fill:none;stroke:#b0b0b0;stroke-linecap:square;stroke-width:0.8;"/>
     </g>
     <g id="line2d_12">
      <defs>
       <path d="M 0 0 
L -3.5 0 
" id="m962043088c" style="stroke:#000000;stroke-width:0.8;"/>
      </defs>
      <g>
       <use style="stroke:#000000;stroke-width:0.8;" x="108" xlink:href="#m962043088c" y="691.474523"/>
      </g>
     </g>
     <g id="text_7">
      <!-- −6 -->
      <g transform="translate(78.886719 697.173351)scale(0.15 -0.15)">
       <use xlink:href="#DejaVuSans-8722"/>
       <use x="83.789062" xlink:href="#DejaVuSans-54"/>
      </g>
     </g>
    </g>
    <g id="ytick_2">
     <g id="line2d_13">
      <path clip-path="url(#p0d3c8eaec1)" d="M 108 566.013127 
L 777.6 566.013127 
" style="fill:none;stroke:#b0b0b0;stroke-linecap:square;stroke-width:0.8;"/>
     </g>
     <g id="line2d_14">
      <g>
       <use style="stroke:#000000;stroke-width:0.8;" x="108" xlink:href="#m962043088c" y="566.013127"/>
      </g>
     </g>
     <g id="text_8">
      <!-- −4 -->
      <g transform="translate(78.886719 571.711956)scale(0.15 -0.15)">
       <use xlink:href="#DejaVuSans-8722"/>
       <use x="83.789062" xlink:href="#DejaVuSans-52"/>
      </g>
     </g>
    </g>
    <g id="ytick_3">
     <g id="line2d_15">
      <path clip-path="url(#p0d3c8eaec1)" d="M 108 440.551732 
L 777.6 440.551732 
" style="fill:none;stroke:#b0b0b0;stroke-linecap:square;stroke-width:0.8;"/>
     </g>
     <g id="line2d_16">
      <g>
       <use style="stroke:#000000;stroke-width:0.8;" x="108" xlink:href="#m962043088c" y="440.551732"/>
      </g>
     </g>
     <g id="text_9">
      <!-- −2 -->
      <g transform="translate(78.886719 446.25056)scale(0.15 -0.15)">
       <use xlink:href="#DejaVuSans-8722"/>
       <use x="83.789062" xlink:href="#DejaVuSans-50"/>
      </g>
     </g>
    </g>
    <g id="ytick_4">
     <g id="line2d_17">
      <path clip-path="url(#p0d3c8eaec1)" d="M 108 315.090337 
L 777.6 315.090337 
" style="fill:none;stroke:#b0b0b0;stroke-linecap:square;stroke-width:0.8;"/>
     </g>
     <g id="line2d_18">
      <g>
       <use style="stroke:#000000;stroke-width:0.8;" x="108" xlink:href="#m962043088c" y="315.090337"/>
      </g>
     </g>
     <g id="text_10">
      <!-- 0 -->
      <g transform="translate(91.45625 320.789165)scale(0.15 -0.15)">
       <use xlink:href="#DejaVuSans-48"/>
      </g>
     </g>
    </g>
    <g id="ytick_5">
     <g id="line2d_19">
      <path clip-path="url(#p0d3c8eaec1)" d="M 108 189.628941 
L 777.6 189.628941 
" style="fill:none;stroke:#b0b0b0;stroke-linecap:square;stroke-width:0.8;"/>
     </g>
     <g id="line2d_20">
      <g>
       <use style="stroke:#000000;stroke-width:0.8;" x="108" xlink:href="#m962043088c" y="189.628941"/>
      </g>
     </g>
     <g id="text_11">
      <!-- 2 -->
      <g transform="translate(91.45625 195.327769)scale(0.15 -0.15)">
       <use xlink:href="#DejaVuSans-50"/>
      </g>
     </g>
    </g>
    <g id="text_12">
     <!-- $X$ -->
     <g transform="translate(71.767188 435.015)rotate(-90)scale(0.15 -0.15)">
      <defs>
       <path d="M 13.71875 72.90625 
L 23.6875 72.90625 
L 36.1875 46.578125 
L 58.796875 72.90625 
L 70.3125 72.90625 
L 40.28125 38.09375 
L 58.40625 0 
L 48.484375 0 
L 33.796875 30.71875 
L 7.171875 0 
L -4.296875 0 
L 29.78125 39.203125 
z
" id="DejaVuSans-Oblique-88"/>
      </defs>
      <use transform="translate(0 0.09375)" xlink:href="#DejaVuSans-Oblique-88"/>
     </g>
    </g>
   </g>
   <g id="line2d_21">
    <path clip-path="url(#p0d3c8eaec1)" d="M 747.163636 315.090337 
L 702.328025 345.336856 
L 690.039986 393.593981 
L 729.432284 358.124155 
L 722.510423 417.361354 
L 728.2796 365.490743 
L 720.238212 318.944545 
L 658.760419 307.213408 
L 593.054614 302.48938 
L 593.409144 260.633798 
L 621.917717 251.467453 
L 598.352747 190.193012 
L 622.236878 133.330909 
L 554.173102 169.497639 
L 589.545147 153.292374 
L 630.967729 138.303665 
L 584.751516 154.850843 
L 604.877747 165.985476 
L 569.277523 153.728991 
L 602.133441 213.164637 
L 547.566228 251.670507 
L 548.154795 306.719693 
L 486.043081 330.16311 
L 506.536115 389.747644 
L 519.869133 432.641747 
L 583.926968 481.111927 
L 609.621737 541.21571 
L 584.645853 501.301343 
L 597.388392 503.969464 
L 549.493359 495.347902 
L 547.226258 469.536357 
L 588.392452 425.916508 
L 527.611522 473.777832 
L 492.706044 438.924882 
L 433.619741 436.72695 
L 369.473294 479.352788 
L 391.803998 499.880546 
L 352.845616 522.478954 
L 393.098643 548.513969 
L 328.916674 503.681169 
L 283.959975 447.202846 
L 305.024746 397.184363 
L 298.354098 339.73771 
L 262.592199 359.463677 
L 299.009453 341.617276 
L 293.424377 323.187571 
L 269.028878 269.551066 
L 309.203645 275.017005 
L 374.962054 216.818164 
L 324.068192 163.974307 
L 306.972689 180.304523 
L 368.108683 193.156695 
L 300.539668 232.115902 
L 309.458048 189.593211 
L 242.135383 179.375794 
L 220.762075 178.087556 
L 244.509749 240.338958 
L 308.185533 301.728206 
L 253.904275 334.597896 
L 282.804259 282.864898 
L 269.07238 287.335211 
L 327.035576 302.555361 
L 361.588306 293.04179 
L 308.729116 342.280743 
L 334.896199 345.821437 
L 270.668046 368.80876 
L 240.463934 315.050528 
L 198.48351 343.158832 
L 234.77511 378.915501 
L 276.466489 383.88898 
L 335.571057 385.047521 
L 298.276459 425.349233 
L 316.992274 480.891036 
L 249.071136 424.662391 
L 270.567151 386.706283 
L 241.178701 380.351294 
L 240.953126 408.628309 
L 206.523514 374.117284 
L 138.436364 365.082858 
L 181.053052 333.918599 
L 237.617788 389.4753 
L 191.568971 360.048036 
L 219.785868 419.76534 
L 163.98759 434.583059 
L 198.766609 472.691926 
L 251.068251 508.498207 
L 213.311614 463.205606 
L 273.29516 437.235941 
L 310.743323 402.67932 
L 268.859197 407.079557 
L 263.521066 466.391262 
L 230.385067 408.306768 
L 188.935916 417.204454 
L 163.71246 472.991268 
L 205.778944 520.268428 
L 240.366296 573.827072 
L 212.182026 605.135367 
L 263.856943 650.40273 
L 258.428819 680.404291 
L 308.721538 721.404713 
L 282.047184 726.349091 
" style="fill:none;stroke:#1f77b4;stroke-linecap:square;stroke-width:1.5;"/>
    <defs>
     <path d="M 0 3 
C 0.795609 3 1.55874 2.683901 2.12132 2.12132 
C 2.683901 1.55874 3 0.795609 3 0 
C 3 -0.795609 2.683901 -1.55874 2.12132 -2.12132 
C 1.55874 -2.683901 0.795609 -3 0 -3 
C -0.795609 -3 -1.55874 -2.683901 -2.12132 -2.12132 
C -2.683901 -1.55874 -3 -0.795609 -3 0 
C -3 0.795609 -2.683901 1.55874 -2.12132 2.12132 
C -1.55874 2.683901 -0.795609 3 0 3 
z
" id="m9d77d01d49" style="stroke:#1f77b4;"/>
    </defs>
    <g clip-path="url(#p0d3c8eaec1)">
     <use style="fill:#1f77b4;stroke:#1f77b4;" x="747.163636" xlink:href="#m9d77d01d49" y="315.090337"/>
     <use style="fill:#1f77b4;stroke:#1f77b4;" x="702.328025" xlink:href="#m9d77d01d49" y="345.336856"/>
     <use style="fill:#1f77b4;stroke:#1f77b4;" x="690.039986" xlink:href="#m9d77d01d49" y="393.593981"/>
     <use style="fill:#1f77b4;stroke:#1f77b4;" x="729.432284" xlink:href="#m9d77d01d49" y="358.124155"/>
     <use style="fill:#1f77b4;stroke:#1f77b4;" x="722.510423" xlink:href="#m9d77d01d49" y="417.361354"/>
     <use style="fill:#1f77b4;stroke:#1f77b4;" x="728.2796" xlink:href="#m9d77d01d49" y="365.490743"/>
     <use style="fill:#1f77b4;stroke:#1f77b4;" x="720.238212" xlink:href="#m9d77d01d49" y="318.944545"/>
     <use style="fill:#1f77b4;stroke:#1f77b4;" x="658.760419" xlink:href="#m9d77d01d49" y="307.213408"/>
     <use style="fill:#1f77b4;stroke:#1f77b4;" x="593.054614" xlink:href="#m9d77d01d49" y="302.48938"/>
     <use style="fill:#1f77b4;stroke:#1f77b4;" x="593.409144" xlink:href="#m9d77d01d49" y="260.633798"/>
     <use style="fill:#1f77b4;stroke:#1f77b4;" x="621.917717" xlink:href="#m9d77d01d49" y="251.467453"/>
     <use style="fill:#1f77b4;stroke:#1f77b4;" x="598.352747" xlink:href="#m9d77d01d49" y="190.193012"/>
     <use style="fill:#1f77b4;stroke:#1f77b4;" x="622.236878" xlink:href="#m9d77d01d49" y="133.330909"/>
     <use style="fill:#1f77b4;stroke:#1f77b4;" x="554.173102" xlink:href="#m9d77d01d49" y="169.497639"/>
     <use style="fill:#1f77b4;stroke:#1f77b4;" x="589.545147" xlink:href="#m9d77d01d49" y="153.292374"/>
     <use style="fill:#1f77b4;stroke:#1f77b4;" x="630.967729" xlink:href="#m9d77d01d49" y="138.303665"/>
     <use style="fill:#1f77b4;stroke:#1f77b4;" x="584.751516" xlink:href="#m9d77d01d49" y="154.850843"/>
     <use style="fill:#1f77b4;stroke:#1f77b4;" x="604.877747" xlink:href="#m9d77d01d49" y="165.985476"/>
     <use style="fill:#1f77b4;stroke:#1f77b4;" x="569.277523" xlink:href="#m9d77d01d49" y="153.728991"/>
     <use style="fill:#1f77b4;stroke:#1f77b4;" x="602.133441" xlink:href="#m9d77d01d49" y="213.164637"/>
     <use style="fill:#1f77b4;stroke:#1f77b4;" x="547.566228" xlink:href="#m9d77d01d49" y="251.670507"/>
     <use style="fill:#1f77b4;stroke:#1f77b4;" x="548.154795" xlink:href="#m9d77d01d49" y="306.719693"/>
     <use style="fill:#1f77b4;stroke:#1f77b4;" x="486.043081" xlink:href="#m9d77d01d49" y="330.16311"/>
     <use style="fill:#1f77b4;stroke:#1f77b4;" x="506.536115" xlink:href="#m9d77d01d49" y="389.747644"/>
     <use style="fill:#1f77b4;stroke:#1f77b4;" x="519.869133" xlink:href="#m9d77d01d49" y="432.641747"/>
     <use style="fill:#1f77b4;stroke:#1f77b4;" x="583.926968" xlink:href="#m9d77d01d49" y="481.111927"/>
     <use style="fill:#1f77b4;stroke:#1f77b4;" x="609.621737" xlink:href="#m9d77d01d49" y="541.21571"/>
     <use style="fill:#1f77b4;stroke:#1f77b4;" x="584.645853" xlink:href="#m9d77d01d49" y="501.301343"/>
     <use style="fill:#1f77b4;stroke:#1f77b4;" x="597.388392" xlink:href="#m9d77d01d49" y="503.969464"/>
     <use style="fill:#1f77b4;stroke:#1f77b4;" x="549.493359" xlink:href="#m9d77d01d49" y="495.347902"/>
     <use style="fill:#1f77b4;stroke:#1f77b4;" x="547.226258" xlink:href="#m9d77d01d49" y="469.536357"/>
     <use style="fill:#1f77b4;stroke:#1f77b4;" x="588.392452" xlink:href="#m9d77d01d49" y="425.916508"/>
     <use style="fill:#1f77b4;stroke:#1f77b4;" x="527.611522" xlink:href="#m9d77d01d49" y="473.777832"/>
     <use style="fill:#1f77b4;stroke:#1f77b4;" x="492.706044" xlink:href="#m9d77d01d49" y="438.924882"/>
     <use style="fill:#1f77b4;stroke:#1f77b4;" x="433.619741" xlink:href="#m9d77d01d49" y="436.72695"/>
     <use style="fill:#1f77b4;stroke:#1f77b4;" x="369.473294" xlink:href="#m9d77d01d49" y="479.352788"/>
     <use style="fill:#1f77b4;stroke:#1f77b4;" x="391.803998" xlink:href="#m9d77d01d49" y="499.880546"/>
     <use style="fill:#1f77b4;stroke:#1f77b4;" x="352.845616" xlink:href="#m9d77d01d49" y="522.478954"/>
     <use style="fill:#1f77b4;stroke:#1f77b4;" x="393.098643" xlink:href="#m9d77d01d49" y="548.513969"/>
     <use style="fill:#1f77b4;stroke:#1f77b4;" x="328.916674" xlink:href="#m9d77d01d49" y="503.681169"/>
     <use style="fill:#1f77b4;stroke:#1f77b4;" x="283.959975" xlink:href="#m9d77d01d49" y="447.202846"/>
     <use style="fill:#1f77b4;stroke:#1f77b4;" x="305.024746" xlink:href="#m9d77d01d49" y="397.184363"/>
     <use style="fill:#1f77b4;stroke:#1f77b4;" x="298.354098" xlink:href="#m9d77d01d49" y="339.73771"/>
     <use style="fill:#1f77b4;stroke:#1f77b4;" x="262.592199" xlink:href="#m9d77d01d49" y="359.463677"/>
     <use style="fill:#1f77b4;stroke:#1f77b4;" x="299.009453" xlink:href="#m9d77d01d49" y="341.617276"/>
     <use style="fill:#1f77b4;stroke:#1f77b4;" x="293.424377" xlink:href="#m9d77d01d49" y="323.187571"/>
     <use style="fill:#1f77b4;stroke:#1f77b4;" x="269.028878" xlink:href="#m9d77d01d49" y="269.551066"/>
     <use style="fill:#1f77b4;stroke:#1f77b4;" x="309.203645" xlink:href="#m9d77d01d49" y="275.017005"/>
     <use style="fill:#1f77b4;stroke:#1f77b4;" x="374.962054" xlink:href="#m9d77d01d49" y="216.818164"/>
     <use style="fill:#1f77b4;stroke:#1f77b4;" x="324.068192" xlink:href="#m9d77d01d49" y="163.974307"/>
     <use style="fill:#1f77b4;stroke:#1f77b4;" x="306.972689" xlink:href="#m9d77d01d49" y="180.304523"/>
     <use style="fill:#1f77b4;stroke:#1f77b4;" x="368.108683" xlink:href="#m9d77d01d49" y="193.156695"/>
     <use style="fill:#1f77b4;stroke:#1f77b4;" x="300.539668" xlink:href="#m9d77d01d49" y="232.115902"/>
     <use style="fill:#1f77b4;stroke:#1f77b4;" x="309.458048" xlink:href="#m9d77d01d49" y="189.593211"/>
     <use style="fill:#1f77b4;stroke:#1f77b4;" x="242.135383" xlink:href="#m9d77d01d49" y="179.375794"/>
     <use style="fill:#1f77b4;stroke:#1f77b4;" x="220.762075" xlink:href="#m9d77d01d49" y="178.087556"/>
     <use style="fill:#1f77b4;stroke:#1f77b4;" x="244.509749" xlink:href="#m9d77d01d49" y="240.338958"/>
     <use style="fill:#1f77b4;stroke:#1f77b4;" x="308.185533" xlink:href="#m9d77d01d49" y="301.728206"/>
     <use style="fill:#1f77b4;stroke:#1f77b4;" x="253.904275" xlink:href="#m9d77d01d49" y="334.597896"/>
     <use style="fill:#1f77b4;stroke:#1f77b4;" x="282.804259" xlink:href="#m9d77d01d49" y="282.864898"/>
     <use style="fill:#1f77b4;stroke:#1f77b4;" x="269.07238" xlink:href="#m9d77d01d49" y="287.335211"/>
     <use style="fill:#1f77b4;stroke:#1f77b4;" x="327.035576" xlink:href="#m9d77d01d49" y="302.555361"/>
     <use style="fill:#1f77b4;stroke:#1f77b4;" x="361.588306" xlink:href="#m9d77d01d49" y="293.04179"/>
     <use style="fill:#1f77b4;stroke:#1f77b4;" x="308.729116" xlink:href="#m9d77d01d49" y="342.280743"/>
     <use style="fill:#1f77b4;stroke:#1f77b4;" x="334.896199" xlink:href="#m9d77d01d49" y="345.821437"/>
     <use style="fill:#1f77b4;stroke:#1f77b4;" x="270.668046" xlink:href="#m9d77d01d49" y="368.80876"/>
     <use style="fill:#1f77b4;stroke:#1f77b4;" x="240.463934" xlink:href="#m9d77d01d49" y="315.050528"/>
     <use style="fill:#1f77b4;stroke:#1f77b4;" x="198.48351" xlink:href="#m9d77d01d49" y="343.158832"/>
     <use style="fill:#1f77b4;stroke:#1f77b4;" x="234.77511" xlink:href="#m9d77d01d49" y="378.915501"/>
     <use style="fill:#1f77b4;stroke:#1f77b4;" x="276.466489" xlink:href="#m9d77d01d49" y="383.88898"/>
     <use style="fill:#1f77b4;stroke:#1f77b4;" x="335.571057" xlink:href="#m9d77d01d49" y="385.047521"/>
     <use style="fill:#1f77b4;stroke:#1f77b4;" x="298.276459" xlink:href="#m9d77d01d49" y="425.349233"/>
     <use style="fill:#1f77b4;stroke:#1f77b4;" x="316.992274" xlink:href="#m9d77d01d49" y="480.891036"/>
     <use style="fill:#1f77b4;stroke:#1f77b4;" x="249.071136" xlink:href="#m9d77d01d49" y="424.662391"/>
     <use style="fill:#1f77b4;stroke:#1f77b4;" x="270.567151" xlink:href="#m9d77d01d49" y="386.706283"/>
     <use style="fill:#1f77b4;stroke:#1f77b4;" x="241.178701" xlink:href="#m9d77d01d49" y="380.351294"/>
     <use style="fill:#1f77b4;stroke:#1f77b4;" x="240.953126" xlink:href="#m9d77d01d49" y="408.628309"/>
     <use style="fill:#1f77b4;stroke:#1f77b4;" x="206.523514" xlink:href="#m9d77d01d49" y="374.117284"/>
     <use style="fill:#1f77b4;stroke:#1f77b4;" x="138.436364" xlink:href="#m9d77d01d49" y="365.082858"/>
     <use style="fill:#1f77b4;stroke:#1f77b4;" x="181.053052" xlink:href="#m9d77d01d49" y="333.918599"/>
     <use style="fill:#1f77b4;stroke:#1f77b4;" x="237.617788" xlink:href="#m9d77d01d49" y="389.4753"/>
     <use style="fill:#1f77b4;stroke:#1f77b4;" x="191.568971" xlink:href="#m9d77d01d49" y="360.048036"/>
     <use style="fill:#1f77b4;stroke:#1f77b4;" x="219.785868" xlink:href="#m9d77d01d49" y="419.76534"/>
     <use style="fill:#1f77b4;stroke:#1f77b4;" x="163.98759" xlink:href="#m9d77d01d49" y="434.583059"/>
     <use style="fill:#1f77b4;stroke:#1f77b4;" x="198.766609" xlink:href="#m9d77d01d49" y="472.691926"/>
     <use style="fill:#1f77b4;stroke:#1f77b4;" x="251.068251" xlink:href="#m9d77d01d49" y="508.498207"/>
     <use style="fill:#1f77b4;stroke:#1f77b4;" x="213.311614" xlink:href="#m9d77d01d49" y="463.205606"/>
     <use style="fill:#1f77b4;stroke:#1f77b4;" x="273.29516" xlink:href="#m9d77d01d49" y="437.235941"/>
     <use style="fill:#1f77b4;stroke:#1f77b4;" x="310.743323" xlink:href="#m9d77d01d49" y="402.67932"/>
     <use style="fill:#1f77b4;stroke:#1f77b4;" x="268.859197" xlink:href="#m9d77d01d49" y="407.079557"/>
     <use style="fill:#1f77b4;stroke:#1f77b4;" x="263.521066" xlink:href="#m9d77d01d49" y="466.391262"/>
     <use style="fill:#1f77b4;stroke:#1f77b4;" x="230.385067" xlink:href="#m9d77d01d49" y="408.306768"/>
     <use style="fill:#1f77b4;stroke:#1f77b4;" x="188.935916" xlink:href="#m9d77d01d49" y="417.204454"/>
     <use style="fill:#1f77b4;stroke:#1f77b4;" x="163.71246" xlink:href="#m9d77d01d49" y="472.991268"/>
     <use style="fill:#1f77b4;stroke:#1f77b4;" x="205.778944" xlink:href="#m9d77d01d49" y="520.268428"/>
     <use style="fill:#1f77b4;stroke:#1f77b4;" x="240.366296" xlink:href="#m9d77d01d49" y="573.827072"/>
     <use style="fill:#1f77b4;stroke:#1f77b4;" x="212.182026" xlink:href="#m9d77d01d49" y="605.135367"/>
     <use style="fill:#1f77b4;stroke:#1f77b4;" x="263.856943" xlink:href="#m9d77d01d49" y="650.40273"/>
     <use style="fill:#1f77b4;stroke:#1f77b4;" x="258.428819" xlink:href="#m9d77d01d49" y="680.404291"/>
     <use style="fill:#1f77b4;stroke:#1f77b4;" x="308.721538" xlink:href="#m9d77d01d49" y="721.404713"/>
     <use style="fill:#1f77b4;stroke:#1f77b4;" x="282.047184" xlink:href="#m9d77d01d49" y="726.349091"/>
    </g>
   </g>
   <g id="line2d_22">
    <path clip-path="url(#p0d3c8eaec1)" d="M 747.163636 315.090337 
L 282.047184 726.349091 
" style="fill:none;stroke:#000000;stroke-linecap:square;stroke-width:1.5;"/>
   </g>
   <g id="patch_3">
    <path d="M 108 756 
L 108 103.68 
" style="fill:none;stroke:#000000;stroke-linecap:square;stroke-linejoin:miter;stroke-width:0.8;"/>
   </g>
   <g id="patch_4">
    <path d="M 777.6 756 
L 777.6 103.68 
" style="fill:none;stroke:#000000;stroke-linecap:square;stroke-linejoin:miter;stroke-width:0.8;"/>
   </g>
   <g id="patch_5">
    <path d="M 108 756 
L 777.6 756 
" style="fill:none;stroke:#000000;stroke-linecap:square;stroke-linejoin:miter;stroke-width:0.8;"/>
   </g>
   <g id="patch_6">
    <path d="M 108 103.68 
L 777.6 103.68 
" style="fill:none;stroke:#000000;stroke-linecap:square;stroke-linejoin:miter;stroke-width:0.8;"/>
   </g>
   <g id="patch_7">
    <path d="M 734.458687 363.943834 
Q 738.550006 345.190131 742.641325 326.436427 
L 738.733245 325.583838 
Q 742.942863 320.362654 747.152481 315.141469 
Q 748.804984 321.641537 750.457486 328.141606 
L 746.549406 327.289016 
Q 742.458086 346.04272 738.366767 364.796423 
L 734.458687 363.943834 
z
" style="stroke:#000000;stroke-linecap:round;"/>
   </g>
   <g id="text_13">
    <!-- START -->
    <g transform="translate(712.824945 377.821034)scale(0.15 -0.15)">
     <defs>
      <path d="M 53.515625 70.515625 
L 53.515625 60.890625 
Q 47.90625 63.578125 42.921875 64.890625 
Q 37.9375 66.21875 33.296875 66.21875 
Q 25.25 66.21875 20.875 63.09375 
Q 16.5 59.96875 16.5 54.203125 
Q 16.5 49.359375 19.40625 46.890625 
Q 22.3125 44.4375 30.421875 42.921875 
L 36.375 41.703125 
Q 47.40625 39.59375 52.65625 34.296875 
Q 57.90625 29 57.90625 20.125 
Q 57.90625 9.515625 50.796875 4.046875 
Q 43.703125 -1.421875 29.984375 -1.421875 
Q 24.8125 -1.421875 18.96875 -0.25 
Q 13.140625 0.921875 6.890625 3.21875 
L 6.890625 13.375 
Q 12.890625 10.015625 18.65625 8.296875 
Q 24.421875 6.59375 29.984375 6.59375 
Q 38.421875 6.59375 43.015625 9.90625 
Q 47.609375 13.234375 47.609375 19.390625 
Q 47.609375 24.75 44.3125 27.78125 
Q 41.015625 30.8125 33.5 32.328125 
L 27.484375 33.5 
Q 16.453125 35.6875 11.515625 40.375 
Q 6.59375 45.0625 6.59375 53.421875 
Q 6.59375 63.09375 13.40625 68.65625 
Q 20.21875 74.21875 32.171875 74.21875 
Q 37.3125 74.21875 42.625 73.28125 
Q 47.953125 72.359375 53.515625 70.515625 
z
" id="DejaVuSans-83"/>
      <path d="M -0.296875 72.90625 
L 61.375 72.90625 
L 61.375 64.59375 
L 35.5 64.59375 
L 35.5 0 
L 25.59375 0 
L 25.59375 64.59375 
L -0.296875 64.59375 
z
" id="DejaVuSans-84"/>
      <path d="M 34.1875 63.1875 
L 20.796875 26.90625 
L 47.609375 26.90625 
z
M 28.609375 72.90625 
L 39.796875 72.90625 
L 67.578125 0 
L 57.328125 0 
L 50.6875 18.703125 
L 17.828125 18.703125 
L 11.1875 0 
L 0.78125 0 
z
" id="DejaVuSans-65"/>
      <path d="M 44.390625 34.1875 
Q 47.5625 33.109375 50.5625 29.59375 
Q 53.5625 26.078125 56.59375 19.921875 
L 66.609375 0 
L 56 0 
L 46.6875 18.703125 
Q 43.0625 26.03125 39.671875 28.421875 
Q 36.28125 30.8125 30.421875 30.8125 
L 19.671875 30.8125 
L 19.671875 0 
L 9.8125 0 
L 9.8125 72.90625 
L 32.078125 72.90625 
Q 44.578125 72.90625 50.734375 67.671875 
Q 56.890625 62.453125 56.890625 51.90625 
Q 56.890625 45.015625 53.6875 40.46875 
Q 50.484375 35.9375 44.390625 34.1875 
z
M 19.671875 64.796875 
L 19.671875 38.921875 
L 32.078125 38.921875 
Q 39.203125 38.921875 42.84375 42.21875 
Q 46.484375 45.515625 46.484375 51.90625 
Q 46.484375 58.296875 42.84375 61.546875 
Q 39.203125 64.796875 32.078125 64.796875 
z
" id="DejaVuSans-82"/>
     </defs>
     <use xlink:href="#DejaVuSans-83"/>
     <use x="63.476562" xlink:href="#DejaVuSans-84"/>
     <use x="116.810547" xlink:href="#DejaVuSans-65"/>
     <use x="185.21875" xlink:href="#DejaVuSans-82"/>
     <use x="247.451172" xlink:href="#DejaVuSans-84"/>
    </g>
   </g>
   <g id="patch_8">
    <path d="M 401.487059 738.349902 
Q 347.722287 733.851274 293.957516 729.352646 
L 293.623992 733.338717 
Q 287.895814 729.848943 282.167637 726.35917 
Q 288.396101 723.869837 294.624564 721.380504 
L 294.29104 725.366575 
Q 348.055811 729.865203 401.820583 734.363831 
L 401.487059 738.349902 
z
" style="stroke:#000000;stroke-linecap:round;"/>
   </g>
   <g id="text_14">
    <!-- END -->
    <g transform="translate(403.776722 747.932151)scale(0.15 -0.15)">
     <defs>
      <path d="M 9.8125 72.90625 
L 55.90625 72.90625 
L 55.90625 64.59375 
L 19.671875 64.59375 
L 19.671875 43.015625 
L 54.390625 43.015625 
L 54.390625 34.71875 
L 19.671875 34.71875 
L 19.671875 8.296875 
L 56.78125 8.296875 
L 56.78125 0 
L 9.8125 0 
z
" id="DejaVuSans-69"/>
      <path d="M 9.8125 72.90625 
L 23.09375 72.90625 
L 55.421875 11.921875 
L 55.421875 72.90625 
L 64.984375 72.90625 
L 64.984375 0 
L 51.703125 0 
L 19.390625 60.984375 
L 19.390625 0 
L 9.8125 0 
z
" id="DejaVuSans-78"/>
      <path d="M 19.671875 64.796875 
L 19.671875 8.109375 
L 31.59375 8.109375 
Q 46.6875 8.109375 53.6875 14.9375 
Q 60.6875 21.78125 60.6875 36.53125 
Q 60.6875 51.171875 53.6875 57.984375 
Q 46.6875 64.796875 31.59375 64.796875 
z
M 9.8125 72.90625 
L 30.078125 72.90625 
Q 51.265625 72.90625 61.171875 64.09375 
Q 71.09375 55.28125 71.09375 36.53125 
Q 71.09375 17.671875 61.125 8.828125 
Q 51.171875 0 30.078125 0 
L 9.8125 0 
z
" id="DejaVuSans-68"/>
     </defs>
     <use xlink:href="#DejaVuSans-69"/>
     <use x="63.183594" xlink:href="#DejaVuSans-78"/>
     <use x="137.988281" xlink:href="#DejaVuSans-68"/>
    </g>
   </g>
   <g id="legend_1">
    <g id="patch_9">
     <path d="M 126.2 162.643125 
L 377.9775 162.643125 
Q 383.1775 162.643125 383.1775 157.443125 
L 383.1775 121.88 
Q 383.1775 116.68 377.9775 116.68 
L 126.2 116.68 
Q 121 116.68 121 121.88 
L 121 157.443125 
Q 121 162.643125 126.2 162.643125 
z
" style="fill:#ffffff;opacity:0.8;stroke:#cccccc;stroke-linejoin:miter;"/>
    </g>
    <g id="line2d_23">
     <path d="M 131.4 137.735937 
L 183.4 137.735937 
" style="fill:none;stroke:#1f77b4;stroke-linecap:square;stroke-width:1.5;"/>
    </g>
    <g id="line2d_24">
     <g>
      <use style="fill:#1f77b4;stroke:#1f77b4;" x="157.4" xlink:href="#m9d77d01d49" y="137.735937"/>
     </g>
    </g>
    <g id="text_15">
     <!-- random walk -->
     <g transform="translate(204.2 146.835937)scale(0.26 -0.26)">
      <defs>
       <path d="M 41.109375 46.296875 
Q 39.59375 47.171875 37.8125 47.578125 
Q 36.03125 48 33.890625 48 
Q 26.265625 48 22.1875 43.046875 
Q 18.109375 38.09375 18.109375 28.8125 
L 18.109375 0 
L 9.078125 0 
L 9.078125 54.6875 
L 18.109375 54.6875 
L 18.109375 46.1875 
Q 20.953125 51.171875 25.484375 53.578125 
Q 30.03125 56 36.53125 56 
Q 37.453125 56 38.578125 55.875 
Q 39.703125 55.765625 41.0625 55.515625 
z
" id="DejaVuSans-114"/>
       <path d="M 34.28125 27.484375 
Q 23.390625 27.484375 19.1875 25 
Q 14.984375 22.515625 14.984375 16.5 
Q 14.984375 11.71875 18.140625 8.90625 
Q 21.296875 6.109375 26.703125 6.109375 
Q 34.1875 6.109375 38.703125 11.40625 
Q 43.21875 16.703125 43.21875 25.484375 
L 43.21875 27.484375 
z
M 52.203125 31.203125 
L 52.203125 0 
L 43.21875 0 
L 43.21875 8.296875 
Q 40.140625 3.328125 35.546875 0.953125 
Q 30.953125 -1.421875 24.3125 -1.421875 
Q 15.921875 -1.421875 10.953125 3.296875 
Q 6 8.015625 6 15.921875 
Q 6 25.140625 12.171875 29.828125 
Q 18.359375 34.515625 30.609375 34.515625 
L 43.21875 34.515625 
L 43.21875 35.40625 
Q 43.21875 41.609375 39.140625 45 
Q 35.0625 48.390625 27.6875 48.390625 
Q 23 48.390625 18.546875 47.265625 
Q 14.109375 46.140625 10.015625 43.890625 
L 10.015625 52.203125 
Q 14.9375 54.109375 19.578125 55.046875 
Q 24.21875 56 28.609375 56 
Q 40.484375 56 46.34375 49.84375 
Q 52.203125 43.703125 52.203125 31.203125 
z
" id="DejaVuSans-97"/>
       <path d="M 54.890625 33.015625 
L 54.890625 0 
L 45.90625 0 
L 45.90625 32.71875 
Q 45.90625 40.484375 42.875 44.328125 
Q 39.84375 48.1875 33.796875 48.1875 
Q 26.515625 48.1875 22.3125 43.546875 
Q 18.109375 38.921875 18.109375 30.90625 
L 18.109375 0 
L 9.078125 0 
L 9.078125 54.6875 
L 18.109375 54.6875 
L 18.109375 46.1875 
Q 21.34375 51.125 25.703125 53.5625 
Q 30.078125 56 35.796875 56 
Q 45.21875 56 50.046875 50.171875 
Q 54.890625 44.34375 54.890625 33.015625 
z
" id="DejaVuSans-110"/>
       <path d="M 45.40625 46.390625 
L 45.40625 75.984375 
L 54.390625 75.984375 
L 54.390625 0 
L 45.40625 0 
L 45.40625 8.203125 
Q 42.578125 3.328125 38.25 0.953125 
Q 33.9375 -1.421875 27.875 -1.421875 
Q 17.96875 -1.421875 11.734375 6.484375 
Q 5.515625 14.40625 5.515625 27.296875 
Q 5.515625 40.1875 11.734375 48.09375 
Q 17.96875 56 27.875 56 
Q 33.9375 56 38.25 53.625 
Q 42.578125 51.265625 45.40625 46.390625 
z
M 14.796875 27.296875 
Q 14.796875 17.390625 18.875 11.75 
Q 22.953125 6.109375 30.078125 6.109375 
Q 37.203125 6.109375 41.296875 11.75 
Q 45.40625 17.390625 45.40625 27.296875 
Q 45.40625 37.203125 41.296875 42.84375 
Q 37.203125 48.484375 30.078125 48.484375 
Q 22.953125 48.484375 18.875 42.84375 
Q 14.796875 37.203125 14.796875 27.296875 
z
" id="DejaVuSans-100"/>
       <path d="M 30.609375 48.390625 
Q 23.390625 48.390625 19.1875 42.75 
Q 14.984375 37.109375 14.984375 27.296875 
Q 14.984375 17.484375 19.15625 11.84375 
Q 23.34375 6.203125 30.609375 6.203125 
Q 37.796875 6.203125 41.984375 11.859375 
Q 46.1875 17.53125 46.1875 27.296875 
Q 46.1875 37.015625 41.984375 42.703125 
Q 37.796875 48.390625 30.609375 48.390625 
z
M 30.609375 56 
Q 42.328125 56 49.015625 48.375 
Q 55.71875 40.765625 55.71875 27.296875 
Q 55.71875 13.875 49.015625 6.21875 
Q 42.328125 -1.421875 30.609375 -1.421875 
Q 18.84375 -1.421875 12.171875 6.21875 
Q 5.515625 13.875 5.515625 27.296875 
Q 5.515625 40.765625 12.171875 48.375 
Q 18.84375 56 30.609375 56 
z
" id="DejaVuSans-111"/>
       <path d="M 52 44.1875 
Q 55.375 50.25 60.0625 53.125 
Q 64.75 56 71.09375 56 
Q 79.640625 56 84.28125 50.015625 
Q 88.921875 44.046875 88.921875 33.015625 
L 88.921875 0 
L 79.890625 0 
L 79.890625 32.71875 
Q 79.890625 40.578125 77.09375 44.375 
Q 74.3125 48.1875 68.609375 48.1875 
Q 61.625 48.1875 57.5625 43.546875 
Q 53.515625 38.921875 53.515625 30.90625 
L 53.515625 0 
L 44.484375 0 
L 44.484375 32.71875 
Q 44.484375 40.625 41.703125 44.40625 
Q 38.921875 48.1875 33.109375 48.1875 
Q 26.21875 48.1875 22.15625 43.53125 
Q 18.109375 38.875 18.109375 30.90625 
L 18.109375 0 
L 9.078125 0 
L 9.078125 54.6875 
L 18.109375 54.6875 
L 18.109375 46.1875 
Q 21.1875 51.21875 25.484375 53.609375 
Q 29.78125 56 35.6875 56 
Q 41.65625 56 45.828125 52.96875 
Q 50 49.953125 52 44.1875 
z
" id="DejaVuSans-109"/>
       <path id="DejaVuSans-32"/>
       <path d="M 4.203125 54.6875 
L 13.1875 54.6875 
L 24.421875 12.015625 
L 35.59375 54.6875 
L 46.1875 54.6875 
L 57.421875 12.015625 
L 68.609375 54.6875 
L 77.59375 54.6875 
L 63.28125 0 
L 52.6875 0 
L 40.921875 44.828125 
L 29.109375 0 
L 18.5 0 
z
" id="DejaVuSans-119"/>
       <path d="M 9.421875 75.984375 
L 18.40625 75.984375 
L 18.40625 0 
L 9.421875 0 
z
" id="DejaVuSans-108"/>
       <path d="M 9.078125 75.984375 
L 18.109375 75.984375 
L 18.109375 31.109375 
L 44.921875 54.6875 
L 56.390625 54.6875 
L 27.390625 29.109375 
L 57.625 0 
L 45.90625 0 
L 18.109375 26.703125 
L 18.109375 0 
L 9.078125 0 
z
" id="DejaVuSans-107"/>
      </defs>
      <use xlink:href="#DejaVuSans-114"/>
      <use x="41.113281" xlink:href="#DejaVuSans-97"/>
      <use x="102.392578" xlink:href="#DejaVuSans-110"/>
      <use x="165.771484" xlink:href="#DejaVuSans-100"/>
      <use x="229.248047" xlink:href="#DejaVuSans-111"/>
      <use x="290.429688" xlink:href="#DejaVuSans-109"/>
      <use x="387.841797" xlink:href="#DejaVuSans-32"/>
      <use x="419.628906" xlink:href="#DejaVuSans-119"/>
      <use x="501.416016" xlink:href="#DejaVuSans-97"/>
      <use x="562.695312" xlink:href="#DejaVuSans-108"/>
      <use x="590.478516" xlink:href="#DejaVuSans-107"/>
     </g>
    </g>
   </g>
  </g>
 </g>
 <defs>
  <clipPath id="p0d3c8eaec1">
   <rect height="652.32" width="669.6" x="108" y="103.68"/>
  </clipPath>
 </defs>
</svg>
