<?xml version="1.0" encoding="utf-8" standalone="no"?>
<!DOCTYPE svg PUBLIC "-//W3C//DTD SVG 1.1//EN"
  "http://www.w3.org/Graphics/SVG/1.1/DTD/svg11.dtd">
<!-- Created with matplotlib (https://matplotlib.org/) -->
<svg height="648pt" version="1.1" viewBox="0 0 864 648" width="864pt" xmlns="http://www.w3.org/2000/svg" xmlns:xlink="http://www.w3.org/1999/xlink">
 <metadata>
  <rdf:RDF xmlns:cc="http://creativecommons.org/ns#" xmlns:dc="http://purl.org/dc/elements/1.1/" xmlns:rdf="http://www.w3.org/1999/02/22-rdf-syntax-ns#">
   <cc:Work>
    <dc:type rdf:resource="http://purl.org/dc/dcmitype/StillImage"/>
    <dc:date>2021-03-18T13:29:01.838779</dc:date>
    <dc:format>image/svg+xml</dc:format>
    <dc:creator>
     <cc:Agent>
      <dc:title>Matplotlib v3.3.2, https://matplotlib.org/</dc:title>
     </cc:Agent>
    </dc:creator>
   </cc:Work>
  </rdf:RDF>
 </metadata>
 <defs>
  <style type="text/css">*{stroke-linecap:butt;stroke-linejoin:round;}</style>
 </defs>
 <g id="figure_1">
  <g id="patch_1">
   <path d="M 0 648 
L 864 648 
L 864 0 
L 0 0 
z
" style="fill:none;"/>
  </g>
  <g id="axes_1">
   <g id="patch_2">
    <path d="M 68.655 271.466915 
L 828.97 271.466915 
L 828.97 17.28 
L 68.655 17.28 
z
" style="fill:#ffffff;"/>
   </g>
   <g id="matplotlib.axis_1">
    <g id="xtick_1">
     <g id="line2d_1">
      <path clip-path="url(#p51dac6debd)" d="M 68.655 271.466915 
L 68.655 17.28 
" style="fill:none;stroke:#b0b0b0;stroke-linecap:square;stroke-width:0.8;"/>
     </g>
     <g id="line2d_2">
      <defs>
       <path d="M 0 0 
L 0 3.5 
" id="m57eb1a419f" style="stroke:#000000;stroke-width:0.8;"/>
      </defs>
      <g>
       <use style="stroke:#000000;stroke-width:0.8;" x="68.655" xlink:href="#m57eb1a419f" y="271.466915"/>
      </g>
     </g>
     <g id="text_1">
      <!-- 0.00 -->
      <g transform="translate(50.8425 290.624415)scale(0.16 -0.16)">
       <defs>
        <path d="M 31.78125 66.40625 
Q 24.171875 66.40625 20.328125 58.90625 
Q 16.5 51.421875 16.5 36.375 
Q 16.5 21.390625 20.328125 13.890625 
Q 24.171875 6.390625 31.78125 6.390625 
Q 39.453125 6.390625 43.28125 13.890625 
Q 47.125 21.390625 47.125 36.375 
Q 47.125 51.421875 43.28125 58.90625 
Q 39.453125 66.40625 31.78125 66.40625 
z
M 31.78125 74.21875 
Q 44.046875 74.21875 50.515625 64.515625 
Q 56.984375 54.828125 56.984375 36.375 
Q 56.984375 17.96875 50.515625 8.265625 
Q 44.046875 -1.421875 31.78125 -1.421875 
Q 19.53125 -1.421875 13.0625 8.265625 
Q 6.59375 17.96875 6.59375 36.375 
Q 6.59375 54.828125 13.0625 64.515625 
Q 19.53125 74.21875 31.78125 74.21875 
z
" id="DejaVuSans-48"/>
        <path d="M 10.6875 12.40625 
L 21 12.40625 
L 21 0 
L 10.6875 0 
z
" id="DejaVuSans-46"/>
       </defs>
       <use xlink:href="#DejaVuSans-48"/>
       <use x="63.623047" xlink:href="#DejaVuSans-46"/>
       <use x="95.410156" xlink:href="#DejaVuSans-48"/>
       <use x="159.033203" xlink:href="#DejaVuSans-48"/>
      </g>
     </g>
    </g>
    <g id="xtick_2">
     <g id="line2d_3">
      <path clip-path="url(#p51dac6debd)" d="M 163.694375 271.466915 
L 163.694375 17.28 
" style="fill:none;stroke:#b0b0b0;stroke-linecap:square;stroke-width:0.8;"/>
     </g>
     <g id="line2d_4">
      <g>
       <use style="stroke:#000000;stroke-width:0.8;" x="163.694375" xlink:href="#m57eb1a419f" y="271.466915"/>
      </g>
     </g>
     <g id="text_2">
      <!-- 0.25 -->
      <g transform="translate(145.881875 290.624415)scale(0.16 -0.16)">
       <defs>
        <path d="M 19.1875 8.296875 
L 53.609375 8.296875 
L 53.609375 0 
L 7.328125 0 
L 7.328125 8.296875 
Q 12.9375 14.109375 22.625 23.890625 
Q 32.328125 33.6875 34.8125 36.53125 
Q 39.546875 41.84375 41.421875 45.53125 
Q 43.3125 49.21875 43.3125 52.78125 
Q 43.3125 58.59375 39.234375 62.25 
Q 35.15625 65.921875 28.609375 65.921875 
Q 23.96875 65.921875 18.8125 64.3125 
Q 13.671875 62.703125 7.8125 59.421875 
L 7.8125 69.390625 
Q 13.765625 71.78125 18.9375 73 
Q 24.125 74.21875 28.421875 74.21875 
Q 39.75 74.21875 46.484375 68.546875 
Q 53.21875 62.890625 53.21875 53.421875 
Q 53.21875 48.921875 51.53125 44.890625 
Q 49.859375 40.875 45.40625 35.40625 
Q 44.1875 33.984375 37.640625 27.21875 
Q 31.109375 20.453125 19.1875 8.296875 
z
" id="DejaVuSans-50"/>
        <path d="M 10.796875 72.90625 
L 49.515625 72.90625 
L 49.515625 64.59375 
L 19.828125 64.59375 
L 19.828125 46.734375 
Q 21.96875 47.46875 24.109375 47.828125 
Q 26.265625 48.1875 28.421875 48.1875 
Q 40.625 48.1875 47.75 41.5 
Q 54.890625 34.8125 54.890625 23.390625 
Q 54.890625 11.625 47.5625 5.09375 
Q 40.234375 -1.421875 26.90625 -1.421875 
Q 22.3125 -1.421875 17.546875 -0.640625 
Q 12.796875 0.140625 7.71875 1.703125 
L 7.71875 11.625 
Q 12.109375 9.234375 16.796875 8.0625 
Q 21.484375 6.890625 26.703125 6.890625 
Q 35.15625 6.890625 40.078125 11.328125 
Q 45.015625 15.765625 45.015625 23.390625 
Q 45.015625 31 40.078125 35.4375 
Q 35.15625 39.890625 26.703125 39.890625 
Q 22.75 39.890625 18.8125 39.015625 
Q 14.890625 38.140625 10.796875 36.28125 
z
" id="DejaVuSans-53"/>
       </defs>
       <use xlink:href="#DejaVuSans-48"/>
       <use x="63.623047" xlink:href="#DejaVuSans-46"/>
       <use x="95.410156" xlink:href="#DejaVuSans-50"/>
       <use x="159.033203" xlink:href="#DejaVuSans-53"/>
      </g>
     </g>
    </g>
    <g id="xtick_3">
     <g id="line2d_5">
      <path clip-path="url(#p51dac6debd)" d="M 258.73375 271.466915 
L 258.73375 17.28 
" style="fill:none;stroke:#b0b0b0;stroke-linecap:square;stroke-width:0.8;"/>
     </g>
     <g id="line2d_6">
      <g>
       <use style="stroke:#000000;stroke-width:0.8;" x="258.73375" xlink:href="#m57eb1a419f" y="271.466915"/>
      </g>
     </g>
     <g id="text_3">
      <!-- 0.50 -->
      <g transform="translate(240.92125 290.624415)scale(0.16 -0.16)">
       <use xlink:href="#DejaVuSans-48"/>
       <use x="63.623047" xlink:href="#DejaVuSans-46"/>
       <use x="95.410156" xlink:href="#DejaVuSans-53"/>
       <use x="159.033203" xlink:href="#DejaVuSans-48"/>
      </g>
     </g>
    </g>
    <g id="xtick_4">
     <g id="line2d_7">
      <path clip-path="url(#p51dac6debd)" d="M 353.773125 271.466915 
L 353.773125 17.28 
" style="fill:none;stroke:#b0b0b0;stroke-linecap:square;stroke-width:0.8;"/>
     </g>
     <g id="line2d_8">
      <g>
       <use style="stroke:#000000;stroke-width:0.8;" x="353.773125" xlink:href="#m57eb1a419f" y="271.466915"/>
      </g>
     </g>
     <g id="text_4">
      <!-- 0.75 -->
      <g transform="translate(335.960625 290.624415)scale(0.16 -0.16)">
       <defs>
        <path d="M 8.203125 72.90625 
L 55.078125 72.90625 
L 55.078125 68.703125 
L 28.609375 0 
L 18.3125 0 
L 43.21875 64.59375 
L 8.203125 64.59375 
z
" id="DejaVuSans-55"/>
       </defs>
       <use xlink:href="#DejaVuSans-48"/>
       <use x="63.623047" xlink:href="#DejaVuSans-46"/>
       <use x="95.410156" xlink:href="#DejaVuSans-55"/>
       <use x="159.033203" xlink:href="#DejaVuSans-53"/>
      </g>
     </g>
    </g>
    <g id="xtick_5">
     <g id="line2d_9">
      <path clip-path="url(#p51dac6debd)" d="M 448.8125 271.466915 
L 448.8125 17.28 
" style="fill:none;stroke:#b0b0b0;stroke-linecap:square;stroke-width:0.8;"/>
     </g>
     <g id="line2d_10">
      <g>
       <use style="stroke:#000000;stroke-width:0.8;" x="448.8125" xlink:href="#m57eb1a419f" y="271.466915"/>
      </g>
     </g>
     <g id="text_5">
      <!-- 1.00 -->
      <g transform="translate(431 290.624415)scale(0.16 -0.16)">
       <defs>
        <path d="M 12.40625 8.296875 
L 28.515625 8.296875 
L 28.515625 63.921875 
L 10.984375 60.40625 
L 10.984375 69.390625 
L 28.421875 72.90625 
L 38.28125 72.90625 
L 38.28125 8.296875 
L 54.390625 8.296875 
L 54.390625 0 
L 12.40625 0 
z
" id="DejaVuSans-49"/>
       </defs>
       <use xlink:href="#DejaVuSans-49"/>
       <use x="63.623047" xlink:href="#DejaVuSans-46"/>
       <use x="95.410156" xlink:href="#DejaVuSans-48"/>
       <use x="159.033203" xlink:href="#DejaVuSans-48"/>
      </g>
     </g>
    </g>
    <g id="xtick_6">
     <g id="line2d_11">
      <path clip-path="url(#p51dac6debd)" d="M 543.851875 271.466915 
L 543.851875 17.28 
" style="fill:none;stroke:#b0b0b0;stroke-linecap:square;stroke-width:0.8;"/>
     </g>
     <g id="line2d_12">
      <g>
       <use style="stroke:#000000;stroke-width:0.8;" x="543.851875" xlink:href="#m57eb1a419f" y="271.466915"/>
      </g>
     </g>
     <g id="text_6">
      <!-- 1.25 -->
      <g transform="translate(526.039375 290.624415)scale(0.16 -0.16)">
       <use xlink:href="#DejaVuSans-49"/>
       <use x="63.623047" xlink:href="#DejaVuSans-46"/>
       <use x="95.410156" xlink:href="#DejaVuSans-50"/>
       <use x="159.033203" xlink:href="#DejaVuSans-53"/>
      </g>
     </g>
    </g>
    <g id="xtick_7">
     <g id="line2d_13">
      <path clip-path="url(#p51dac6debd)" d="M 638.89125 271.466915 
L 638.89125 17.28 
" style="fill:none;stroke:#b0b0b0;stroke-linecap:square;stroke-width:0.8;"/>
     </g>
     <g id="line2d_14">
      <g>
       <use style="stroke:#000000;stroke-width:0.8;" x="638.89125" xlink:href="#m57eb1a419f" y="271.466915"/>
      </g>
     </g>
     <g id="text_7">
      <!-- 1.50 -->
      <g transform="translate(621.07875 290.624415)scale(0.16 -0.16)">
       <use xlink:href="#DejaVuSans-49"/>
       <use x="63.623047" xlink:href="#DejaVuSans-46"/>
       <use x="95.410156" xlink:href="#DejaVuSans-53"/>
       <use x="159.033203" xlink:href="#DejaVuSans-48"/>
      </g>
     </g>
    </g>
    <g id="xtick_8">
     <g id="line2d_15">
      <path clip-path="url(#p51dac6debd)" d="M 733.930625 271.466915 
L 733.930625 17.28 
" style="fill:none;stroke:#b0b0b0;stroke-linecap:square;stroke-width:0.8;"/>
     </g>
     <g id="line2d_16">
      <g>
       <use style="stroke:#000000;stroke-width:0.8;" x="733.930625" xlink:href="#m57eb1a419f" y="271.466915"/>
      </g>
     </g>
     <g id="text_8">
      <!-- 1.75 -->
      <g transform="translate(716.118125 290.624415)scale(0.16 -0.16)">
       <use xlink:href="#DejaVuSans-49"/>
       <use x="63.623047" xlink:href="#DejaVuSans-46"/>
       <use x="95.410156" xlink:href="#DejaVuSans-55"/>
       <use x="159.033203" xlink:href="#DejaVuSans-53"/>
      </g>
     </g>
    </g>
    <g id="xtick_9">
     <g id="line2d_17">
      <path clip-path="url(#p51dac6debd)" d="M 828.97 271.466915 
L 828.97 17.28 
" style="fill:none;stroke:#b0b0b0;stroke-linecap:square;stroke-width:0.8;"/>
     </g>
     <g id="line2d_18">
      <g>
       <use style="stroke:#000000;stroke-width:0.8;" x="828.97" xlink:href="#m57eb1a419f" y="271.466915"/>
      </g>
     </g>
     <g id="text_9">
      <!-- 2.00 -->
      <g transform="translate(811.1575 290.624415)scale(0.16 -0.16)">
       <use xlink:href="#DejaVuSans-50"/>
       <use x="63.623047" xlink:href="#DejaVuSans-46"/>
       <use x="95.410156" xlink:href="#DejaVuSans-48"/>
       <use x="159.033203" xlink:href="#DejaVuSans-48"/>
      </g>
     </g>
    </g>
    <g id="text_10">
     <!-- time -->
     <g transform="translate(430.73875 310.109415)scale(0.16 -0.16)">
      <defs>
       <path d="M 18.3125 70.21875 
L 18.3125 54.6875 
L 36.8125 54.6875 
L 36.8125 47.703125 
L 18.3125 47.703125 
L 18.3125 18.015625 
Q 18.3125 11.328125 20.140625 9.421875 
Q 21.96875 7.515625 27.59375 7.515625 
L 36.8125 7.515625 
L 36.8125 0 
L 27.59375 0 
Q 17.1875 0 13.234375 3.875 
Q 9.28125 7.765625 9.28125 18.015625 
L 9.28125 47.703125 
L 2.6875 47.703125 
L 2.6875 54.6875 
L 9.28125 54.6875 
L 9.28125 70.21875 
z
" id="DejaVuSans-116"/>
       <path d="M 9.421875 54.6875 
L 18.40625 54.6875 
L 18.40625 0 
L 9.421875 0 
z
M 9.421875 75.984375 
L 18.40625 75.984375 
L 18.40625 64.59375 
L 9.421875 64.59375 
z
" id="DejaVuSans-105"/>
       <path d="M 52 44.1875 
Q 55.375 50.25 60.0625 53.125 
Q 64.75 56 71.09375 56 
Q 79.640625 56 84.28125 50.015625 
Q 88.921875 44.046875 88.921875 33.015625 
L 88.921875 0 
L 79.890625 0 
L 79.890625 32.71875 
Q 79.890625 40.578125 77.09375 44.375 
Q 74.3125 48.1875 68.609375 48.1875 
Q 61.625 48.1875 57.5625 43.546875 
Q 53.515625 38.921875 53.515625 30.90625 
L 53.515625 0 
L 44.484375 0 
L 44.484375 32.71875 
Q 44.484375 40.625 41.703125 44.40625 
Q 38.921875 48.1875 33.109375 48.1875 
Q 26.21875 48.1875 22.15625 43.53125 
Q 18.109375 38.875 18.109375 30.90625 
L 18.109375 0 
L 9.078125 0 
L 9.078125 54.6875 
L 18.109375 54.6875 
L 18.109375 46.1875 
Q 21.1875 51.21875 25.484375 53.609375 
Q 29.78125 56 35.6875 56 
Q 41.65625 56 45.828125 52.96875 
Q 50 49.953125 52 44.1875 
z
" id="DejaVuSans-109"/>
       <path d="M 56.203125 29.59375 
L 56.203125 25.203125 
L 14.890625 25.203125 
Q 15.484375 15.921875 20.484375 11.0625 
Q 25.484375 6.203125 34.421875 6.203125 
Q 39.59375 6.203125 44.453125 7.46875 
Q 49.3125 8.734375 54.109375 11.28125 
L 54.109375 2.78125 
Q 49.265625 0.734375 44.1875 -0.34375 
Q 39.109375 -1.421875 33.890625 -1.421875 
Q 20.796875 -1.421875 13.15625 6.1875 
Q 5.515625 13.8125 5.515625 26.8125 
Q 5.515625 40.234375 12.765625 48.109375 
Q 20.015625 56 32.328125 56 
Q 43.359375 56 49.78125 48.890625 
Q 56.203125 41.796875 56.203125 29.59375 
z
M 47.21875 32.234375 
Q 47.125 39.59375 43.09375 43.984375 
Q 39.0625 48.390625 32.421875 48.390625 
Q 24.90625 48.390625 20.390625 44.140625 
Q 15.875 39.890625 15.1875 32.171875 
z
" id="DejaVuSans-101"/>
      </defs>
      <use xlink:href="#DejaVuSans-116"/>
      <use x="39.208984" xlink:href="#DejaVuSans-105"/>
      <use x="66.992188" xlink:href="#DejaVuSans-109"/>
      <use x="164.404297" xlink:href="#DejaVuSans-101"/>
     </g>
    </g>
   </g>
   <g id="matplotlib.axis_2">
    <g id="ytick_1">
     <g id="line2d_19">
      <path clip-path="url(#p51dac6debd)" d="M 68.655 247.597643 
L 828.97 247.597643 
" style="fill:none;stroke:#b0b0b0;stroke-linecap:square;stroke-width:0.8;"/>
     </g>
     <g id="line2d_20">
      <defs>
       <path d="M 0 0 
L -3.5 0 
" id="m03eb3bfa76" style="stroke:#000000;stroke-width:0.8;"/>
      </defs>
      <g>
       <use style="stroke:#000000;stroke-width:0.8;" x="68.655" xlink:href="#m03eb3bfa76" y="247.597643"/>
      </g>
     </g>
     <g id="text_11">
      <!-- −4 -->
      <g transform="translate(38.0675 253.676393)scale(0.16 -0.16)">
       <defs>
        <path d="M 10.59375 35.5 
L 73.1875 35.5 
L 73.1875 27.203125 
L 10.59375 27.203125 
z
" id="DejaVuSans-8722"/>
        <path d="M 37.796875 64.3125 
L 12.890625 25.390625 
L 37.796875 25.390625 
z
M 35.203125 72.90625 
L 47.609375 72.90625 
L 47.609375 25.390625 
L 58.015625 25.390625 
L 58.015625 17.1875 
L 47.609375 17.1875 
L 47.609375 0 
L 37.796875 0 
L 37.796875 17.1875 
L 4.890625 17.1875 
L 4.890625 26.703125 
z
" id="DejaVuSans-52"/>
       </defs>
       <use xlink:href="#DejaVuSans-8722"/>
       <use x="83.789062" xlink:href="#DejaVuSans-52"/>
      </g>
     </g>
    </g>
    <g id="ytick_2">
     <g id="line2d_21">
      <path clip-path="url(#p51dac6debd)" d="M 68.655 195.983098 
L 828.97 195.983098 
" style="fill:none;stroke:#b0b0b0;stroke-linecap:square;stroke-width:0.8;"/>
     </g>
     <g id="line2d_22">
      <g>
       <use style="stroke:#000000;stroke-width:0.8;" x="68.655" xlink:href="#m03eb3bfa76" y="195.983098"/>
      </g>
     </g>
     <g id="text_12">
      <!-- −2 -->
      <g transform="translate(38.0675 202.061848)scale(0.16 -0.16)">
       <use xlink:href="#DejaVuSans-8722"/>
       <use x="83.789062" xlink:href="#DejaVuSans-50"/>
      </g>
     </g>
    </g>
    <g id="ytick_3">
     <g id="line2d_23">
      <path clip-path="url(#p51dac6debd)" d="M 68.655 144.368552 
L 828.97 144.368552 
" style="fill:none;stroke:#b0b0b0;stroke-linecap:square;stroke-width:0.8;"/>
     </g>
     <g id="line2d_24">
      <g>
       <use style="stroke:#000000;stroke-width:0.8;" x="68.655" xlink:href="#m03eb3bfa76" y="144.368552"/>
      </g>
     </g>
     <g id="text_13">
      <!-- 0 -->
      <g transform="translate(51.475 150.447302)scale(0.16 -0.16)">
       <use xlink:href="#DejaVuSans-48"/>
      </g>
     </g>
    </g>
    <g id="ytick_4">
     <g id="line2d_25">
      <path clip-path="url(#p51dac6debd)" d="M 68.655 92.754007 
L 828.97 92.754007 
" style="fill:none;stroke:#b0b0b0;stroke-linecap:square;stroke-width:0.8;"/>
     </g>
     <g id="line2d_26">
      <g>
       <use style="stroke:#000000;stroke-width:0.8;" x="68.655" xlink:href="#m03eb3bfa76" y="92.754007"/>
      </g>
     </g>
     <g id="text_14">
      <!-- 2 -->
      <g transform="translate(51.475 98.832757)scale(0.16 -0.16)">
       <use xlink:href="#DejaVuSans-50"/>
      </g>
     </g>
    </g>
    <g id="ytick_5">
     <g id="line2d_27">
      <path clip-path="url(#p51dac6debd)" d="M 68.655 41.139461 
L 828.97 41.139461 
" style="fill:none;stroke:#b0b0b0;stroke-linecap:square;stroke-width:0.8;"/>
     </g>
     <g id="line2d_28">
      <g>
       <use style="stroke:#000000;stroke-width:0.8;" x="68.655" xlink:href="#m03eb3bfa76" y="41.139461"/>
      </g>
     </g>
     <g id="text_15">
      <!-- 4 -->
      <g transform="translate(51.475 47.218211)scale(0.16 -0.16)">
       <use xlink:href="#DejaVuSans-52"/>
      </g>
     </g>
    </g>
    <g id="text_16">
     <!-- s1 and s2 -->
     <g transform="translate(30.74 183.024708)rotate(-90)scale(0.16 -0.16)">
      <defs>
       <path d="M 44.28125 53.078125 
L 44.28125 44.578125 
Q 40.484375 46.53125 36.375 47.5 
Q 32.28125 48.484375 27.875 48.484375 
Q 21.1875 48.484375 17.84375 46.4375 
Q 14.5 44.390625 14.5 40.28125 
Q 14.5 37.15625 16.890625 35.375 
Q 19.28125 33.59375 26.515625 31.984375 
L 29.59375 31.296875 
Q 39.15625 29.25 43.1875 25.515625 
Q 47.21875 21.78125 47.21875 15.09375 
Q 47.21875 7.46875 41.1875 3.015625 
Q 35.15625 -1.421875 24.609375 -1.421875 
Q 20.21875 -1.421875 15.453125 -0.5625 
Q 10.6875 0.296875 5.421875 2 
L 5.421875 11.28125 
Q 10.40625 8.6875 15.234375 7.390625 
Q 20.0625 6.109375 24.8125 6.109375 
Q 31.15625 6.109375 34.5625 8.28125 
Q 37.984375 10.453125 37.984375 14.40625 
Q 37.984375 18.0625 35.515625 20.015625 
Q 33.0625 21.96875 24.703125 23.78125 
L 21.578125 24.515625 
Q 13.234375 26.265625 9.515625 29.90625 
Q 5.8125 33.546875 5.8125 39.890625 
Q 5.8125 47.609375 11.28125 51.796875 
Q 16.75 56 26.8125 56 
Q 31.78125 56 36.171875 55.265625 
Q 40.578125 54.546875 44.28125 53.078125 
z
" id="DejaVuSans-115"/>
       <path id="DejaVuSans-32"/>
       <path d="M 34.28125 27.484375 
Q 23.390625 27.484375 19.1875 25 
Q 14.984375 22.515625 14.984375 16.5 
Q 14.984375 11.71875 18.140625 8.90625 
Q 21.296875 6.109375 26.703125 6.109375 
Q 34.1875 6.109375 38.703125 11.40625 
Q 43.21875 16.703125 43.21875 25.484375 
L 43.21875 27.484375 
z
M 52.203125 31.203125 
L 52.203125 0 
L 43.21875 0 
L 43.21875 8.296875 
Q 40.140625 3.328125 35.546875 0.953125 
Q 30.953125 -1.421875 24.3125 -1.421875 
Q 15.921875 -1.421875 10.953125 3.296875 
Q 6 8.015625 6 15.921875 
Q 6 25.140625 12.171875 29.828125 
Q 18.359375 34.515625 30.609375 34.515625 
L 43.21875 34.515625 
L 43.21875 35.40625 
Q 43.21875 41.609375 39.140625 45 
Q 35.0625 48.390625 27.6875 48.390625 
Q 23 48.390625 18.546875 47.265625 
Q 14.109375 46.140625 10.015625 43.890625 
L 10.015625 52.203125 
Q 14.9375 54.109375 19.578125 55.046875 
Q 24.21875 56 28.609375 56 
Q 40.484375 56 46.34375 49.84375 
Q 52.203125 43.703125 52.203125 31.203125 
z
" id="DejaVuSans-97"/>
       <path d="M 54.890625 33.015625 
L 54.890625 0 
L 45.90625 0 
L 45.90625 32.71875 
Q 45.90625 40.484375 42.875 44.328125 
Q 39.84375 48.1875 33.796875 48.1875 
Q 26.515625 48.1875 22.3125 43.546875 
Q 18.109375 38.921875 18.109375 30.90625 
L 18.109375 0 
L 9.078125 0 
L 9.078125 54.6875 
L 18.109375 54.6875 
L 18.109375 46.1875 
Q 21.34375 51.125 25.703125 53.5625 
Q 30.078125 56 35.796875 56 
Q 45.21875 56 50.046875 50.171875 
Q 54.890625 44.34375 54.890625 33.015625 
z
" id="DejaVuSans-110"/>
       <path d="M 45.40625 46.390625 
L 45.40625 75.984375 
L 54.390625 75.984375 
L 54.390625 0 
L 45.40625 0 
L 45.40625 8.203125 
Q 42.578125 3.328125 38.25 0.953125 
Q 33.9375 -1.421875 27.875 -1.421875 
Q 17.96875 -1.421875 11.734375 6.484375 
Q 5.515625 14.40625 5.515625 27.296875 
Q 5.515625 40.1875 11.734375 48.09375 
Q 17.96875 56 27.875 56 
Q 33.9375 56 38.25 53.625 
Q 42.578125 51.265625 45.40625 46.390625 
z
M 14.796875 27.296875 
Q 14.796875 17.390625 18.875 11.75 
Q 22.953125 6.109375 30.078125 6.109375 
Q 37.203125 6.109375 41.296875 11.75 
Q 45.40625 17.390625 45.40625 27.296875 
Q 45.40625 37.203125 41.296875 42.84375 
Q 37.203125 48.484375 30.078125 48.484375 
Q 22.953125 48.484375 18.875 42.84375 
Q 14.796875 37.203125 14.796875 27.296875 
z
" id="DejaVuSans-100"/>
      </defs>
      <use xlink:href="#DejaVuSans-115"/>
      <use x="52.099609" xlink:href="#DejaVuSans-49"/>
      <use x="115.722656" xlink:href="#DejaVuSans-32"/>
      <use x="147.509766" xlink:href="#DejaVuSans-97"/>
      <use x="208.789062" xlink:href="#DejaVuSans-110"/>
      <use x="272.167969" xlink:href="#DejaVuSans-100"/>
      <use x="335.644531" xlink:href="#DejaVuSans-32"/>
      <use x="367.431641" xlink:href="#DejaVuSans-115"/>
      <use x="419.53125" xlink:href="#DejaVuSans-50"/>
     </g>
    </g>
   </g>
   <g id="line2d_29">
    <path clip-path="url(#p51dac6debd)" d="M 68.655 137.238883 
L 72.456575 167.68727 
L 76.25815 113.098232 
L 80.059725 129.980326 
L 83.8613 142.14567 
L 87.662875 95.679547 
L 91.46445 122.707006 
L 95.266025 138.544266 
L 99.0676 155.700789 
L 102.869175 180.210716 
L 106.67075 88.334331 
L 110.472325 90.086392 
L 114.2739 176.138004 
L 118.075475 163.100363 
L 121.87705 154.980939 
L 125.678625 190.183746 
L 129.4802 85.891 
L 133.281775 141.417821 
L 137.08335 187.725161 
L 140.884925 175.365253 
L 144.6865 169.718889 
L 148.488075 93.210135 
L 152.28965 116.519433 
L 156.091225 171.064417 
L 159.8928 189.722682 
L 163.694375 140.980889 
L 167.49595 151.11725 
L 171.297525 125.07049 
L 175.0991 179.027933 
L 178.900675 159.882866 
L 182.70225 119.140865 
L 186.503825 123.400885 
L 190.3054 126.51917 
L 194.106975 151.780252 
L 197.90855 143.925989 
L 201.710125 121.925933 
L 205.5117 105.171444 
L 209.313275 117.19175 
L 213.11485 189.612787 
L 216.916425 221.4562 
L 220.718 174.186618 
L 224.519575 33.494988 
L 228.32115 125.928934 
L 232.122725 177.452551 
L 235.9243 154.520671 
L 239.725875 141.809849 
L 243.52745 103.361243 
L 247.329025 111.054049 
L 251.1306 183.179552 
L 254.932175 189.197611 
L 258.73375 115.485522 
L 262.535325 145.203149 
L 266.3369 122.889023 
L 270.138475 174.542286 
L 273.94005 157.826854 
L 277.741625 123.763974 
L 281.5432 135.568621 
L 285.344775 98.607368 
L 289.14635 177.882374 
L 292.947925 189.071534 
L 296.7495 150.31385 
L 300.551075 116.72247 
L 304.35265 149.547674 
L 308.154225 235.930378 
L 311.9558 189.444506 
L 315.757375 137.02426 
L 319.55895 106.339115 
L 323.360525 127.043106 
L 327.1621 89.321373 
L 330.963675 153.14428 
L 334.76525 165.941987 
L 338.566825 119.919762 
L 342.3684 119.054716 
L 346.169975 141.872735 
L 349.97155 148.906886 
L 353.773125 130.019634 
L 357.5747 133.785593 
L 361.376275 89.858366 
L 368.979425 167.5894 
L 372.781 155.37874 
L 376.582575 98.973643 
L 380.38415 127.721183 
L 384.185725 186.381678 
L 387.9873 144.804913 
L 391.788875 147.466316 
L 395.59045 62.867305 
L 399.392025 216.942359 
L 403.1936 127.70367 
L 406.995175 184.084328 
L 410.79675 169.58063 
L 414.598325 107.744759 
L 418.3999 55.103462 
L 422.201475 190.715083 
L 426.00305 143.012466 
L 429.804625 115.187586 
L 433.6062 105.37128 
L 437.407775 145.158566 
L 441.20935 165.339128 
L 445.010925 111.726354 
L 448.8125 148.34954 
L 452.614075 112.402019 
L 456.41565 114.24769 
L 460.217225 135.453043 
L 464.0188 125.824433 
L 467.820375 100.051284 
L 471.62195 126.370405 
L 475.423525 159.21453 
L 479.2251 145.744952 
L 483.026675 205.275971 
L 486.82825 171.718324 
L 490.629825 131.337582 
L 494.4314 159.199057 
L 498.232975 175.589611 
L 502.03455 153.187549 
L 505.836125 128.491412 
L 509.6377 106.80982 
L 513.439275 146.637459 
L 517.24085 125.639417 
L 521.042425 145.59909 
L 524.844 198.515465 
L 528.645575 126.476825 
L 532.44715 102.782453 
L 536.248725 167.658221 
L 540.0503 141.223948 
L 543.851875 143.52718 
L 547.65345 54.654439 
L 551.455025 133.713199 
L 555.2566 181.266335 
L 559.058175 166.93587 
L 562.85975 161.691241 
L 566.661325 128.009397 
L 570.4629 145.338176 
L 574.264475 186.832301 
L 578.06605 141.656684 
L 581.867625 144.252632 
L 585.6692 114.306014 
L 589.470775 172.961221 
L 593.27235 124.747449 
L 597.073925 219.59851 
L 600.8755 150.346948 
L 604.677075 118.678915 
L 608.47865 173.388879 
L 612.280225 117.933383 
L 616.0818 185.993207 
L 619.883375 159.315312 
L 623.68495 115.323929 
L 627.486525 108.582695 
L 631.2881 145.668945 
L 635.089675 190.174561 
L 638.89125 140.596528 
L 642.692825 122.163343 
L 646.4944 104.905503 
L 650.295975 129.153795 
L 654.09755 168.270089 
L 657.899125 136.49734 
L 661.7007 95.18943 
L 665.502275 129.366048 
L 669.30385 153.99257 
L 673.105425 136.849117 
L 676.907 140.577292 
L 680.708575 112.27424 
L 684.51015 145.485113 
L 688.311725 170.09407 
L 692.1133 167.948121 
L 695.914875 120.267918 
L 699.71645 155.402332 
L 703.518025 137.663704 
L 707.3196 149.426245 
L 711.121175 149.600583 
L 714.92275 140.225569 
L 718.724325 135.620823 
L 722.5259 111.431224 
L 726.327475 154.838564 
L 730.12905 156.833422 
L 733.930625 162.839108 
L 737.7322 114.056769 
L 741.533775 135.123579 
L 745.33535 170.116665 
L 749.136925 199.745457 
L 752.9385 175.714034 
L 756.740075 162.760834 
L 760.54165 95.951662 
L 764.343225 175.674016 
L 768.1448 118.452399 
L 771.946375 193.267941 
L 775.74795 126.240975 
L 779.549525 95.779771 
L 783.3511 192.497272 
L 787.152675 200.673439 
L 790.95425 135.638263 
L 794.755825 106.655299 
L 798.5574 127.898381 
L 802.358975 180.501277 
L 806.16055 172.701134 
L 809.962125 91.404181 
L 813.7637 90.265439 
L 817.565275 127.22568 
L 821.36685 181.748857 
L 825.168425 178.91818 
L 828.97 102.948908 
L 832.771575 91.465749 
L 832.771575 91.465749 
" style="fill:none;stroke:#1f77b4;stroke-linecap:square;stroke-width:1.5;"/>
   </g>
   <g id="line2d_30">
    <path clip-path="url(#p51dac6debd)" d="M 68.655 176.190448 
L 72.456575 108.806043 
L 76.25815 123.013456 
L 80.059725 150.192143 
L 83.8613 150.552466 
L 87.662875 157.470476 
L 91.46445 82.5943 
L 95.266025 155.751743 
L 99.0676 95.823632 
L 102.869175 129.593694 
L 106.67075 130.411825 
L 110.472325 100.126098 
L 114.2739 127.870843 
L 118.075475 183.627869 
L 121.87705 207.319586 
L 125.678625 85.867809 
L 129.4802 48.544446 
L 133.281775 63.626303 
L 137.08335 121.736233 
L 140.884925 200.400737 
L 144.6865 114.471621 
L 148.488075 158.562955 
L 152.28965 129.037779 
L 156.091225 137.638271 
L 159.8928 198.797676 
L 163.694375 170.134092 
L 167.49595 156.868421 
L 171.297525 163.510462 
L 175.0991 122.725578 
L 178.900675 167.7753 
L 182.70225 153.015741 
L 186.503825 109.756176 
L 190.3054 109.784173 
L 194.106975 172.959096 
L 197.90855 188.026976 
L 201.710125 163.33043 
L 205.5117 159.081415 
L 209.313275 125.438202 
L 213.11485 169.529298 
L 216.916425 193.581808 
L 220.718 137.347592 
L 224.519575 121.386624 
L 228.32115 111.685204 
L 232.122725 163.9791 
L 235.9243 186.899179 
L 239.725875 212.279483 
L 243.52745 90.884046 
L 247.329025 99.351428 
L 251.1306 193.376993 
L 254.932175 123.390889 
L 258.73375 133.666755 
L 262.535325 125.811333 
L 266.3369 133.771621 
L 270.138475 202.762456 
L 273.94005 128.380487 
L 277.741625 169.94456 
L 281.5432 127.427976 
L 285.344775 135.280033 
L 289.14635 145.09031 
L 292.947925 169.560317 
L 296.7495 97.839022 
L 300.551075 105.381005 
L 304.35265 157.594013 
L 308.154225 165.760043 
L 311.9558 92.574947 
L 315.757375 163.437452 
L 319.55895 128.977692 
L 323.360525 166.314025 
L 327.1621 178.093909 
L 330.963675 191.088152 
L 334.76525 141.74853 
L 338.566825 111.044577 
L 342.3684 106.843667 
L 346.169975 153.884733 
L 349.97155 162.656714 
L 353.773125 154.747872 
L 357.5747 149.48608 
L 361.376275 108.776056 
L 365.17785 143.030521 
L 368.979425 118.188976 
L 372.781 107.268827 
L 376.582575 92.145847 
L 380.38415 133.034577 
L 384.185725 131.30485 
L 387.9873 185.105005 
L 391.788875 164.774902 
L 395.59045 141.228226 
L 399.392025 92.444894 
L 403.1936 153.296023 
L 406.995175 183.614619 
L 410.79675 100.119457 
L 414.598325 133.344591 
L 418.3999 171.391119 
L 422.201475 178.3639 
L 426.00305 164.345774 
L 429.804625 122.543876 
L 433.6062 164.448027 
L 437.407775 120.048967 
L 441.20935 197.019141 
L 445.010925 151.911678 
L 448.8125 162.595125 
L 452.614075 149.68425 
L 456.41565 155.998724 
L 460.217225 184.036442 
L 464.0188 194.970614 
L 467.820375 129.541974 
L 471.62195 128.916043 
L 475.423525 161.076022 
L 479.2251 163.484661 
L 483.026675 192.278577 
L 486.82825 177.099654 
L 490.629825 160.511223 
L 494.4314 131.09868 
L 498.232975 178.952911 
L 502.03455 152.528777 
L 505.836125 146.299294 
L 509.6377 191.292674 
L 513.439275 149.617326 
L 517.24085 161.188748 
L 521.042425 139.885016 
L 524.844 161.544301 
L 528.645575 125.062467 
L 532.44715 73.115851 
L 536.248725 187.671533 
L 540.0503 182.813276 
L 543.851875 191.799299 
L 547.65345 102.887689 
L 551.455025 146.318994 
L 555.2566 138.854092 
L 559.058175 196.983723 
L 562.85975 183.615456 
L 566.661325 65.018724 
L 570.4629 103.728809 
L 574.264475 125.891529 
L 578.06605 193.427534 
L 581.867625 157.302616 
L 585.6692 125.796292 
L 589.470775 154.787562 
L 593.27235 144.680287 
L 597.073925 171.952148 
L 600.8755 136.664332 
L 604.677075 115.636238 
L 608.47865 120.322884 
L 616.0818 185.046104 
L 619.883375 121.1949 
L 623.68495 139.896698 
L 627.486525 101.975533 
L 631.2881 110.436229 
L 635.089675 161.859693 
L 638.89125 103.242849 
L 642.692825 126.787255 
L 646.4944 132.356698 
L 650.295975 205.994582 
L 654.09755 138.963662 
L 657.899125 159.860606 
L 661.7007 130.826488 
L 665.502275 156.330606 
L 669.30385 136.174468 
L 673.105425 152.828766 
L 676.907 152.934643 
L 680.708575 105.8586 
L 684.51015 107.539589 
L 688.311725 162.266404 
L 692.1133 132.331647 
L 695.914875 159.649601 
L 699.71645 142.657122 
L 703.518025 139.913253 
L 707.3196 190.123933 
L 711.121175 135.925262 
L 714.92275 129.031791 
L 718.724325 108.445356 
L 722.5259 114.448977 
L 726.327475 102.346826 
L 730.12905 183.332361 
L 733.930625 117.959592 
L 737.7322 122.336662 
L 741.533775 110.077265 
L 745.33535 108.264739 
L 749.136925 130.09592 
L 752.9385 154.254617 
L 756.740075 102.082812 
L 760.54165 158.110828 
L 764.343225 155.931042 
L 768.1448 187.847476 
L 771.946375 142.139539 
L 775.74795 116.490925 
L 779.549525 115.893646 
L 783.3511 181.433211 
L 787.152675 140.77825 
L 790.95425 139.871125 
L 794.755825 133.103968 
L 798.5574 139.491881 
L 802.358975 187.456012 
L 806.16055 144.198586 
L 809.962125 191.206895 
L 813.7637 78.999058 
L 817.565275 84.404771 
L 821.36685 146.616873 
L 825.168425 168.46601 
L 828.97 169.618616 
L 832.771575 106.000346 
L 832.771575 106.000346 
" style="fill:none;stroke:#ff7f0e;stroke-linecap:square;stroke-width:1.5;"/>
   </g>
   <g id="patch_3">
    <path d="M 68.655 271.466915 
L 68.655 17.28 
" style="fill:none;stroke:#000000;stroke-linecap:square;stroke-linejoin:miter;stroke-width:0.8;"/>
   </g>
   <g id="patch_4">
    <path d="M 828.97 271.466915 
L 828.97 17.28 
" style="fill:none;stroke:#000000;stroke-linecap:square;stroke-linejoin:miter;stroke-width:0.8;"/>
   </g>
   <g id="patch_5">
    <path d="M 68.655 271.466915 
L 828.97 271.466915 
" style="fill:none;stroke:#000000;stroke-linecap:square;stroke-linejoin:miter;stroke-width:0.8;"/>
   </g>
   <g id="patch_6">
    <path d="M 68.655 17.28 
L 828.97 17.28 
" style="fill:none;stroke:#000000;stroke-linecap:square;stroke-linejoin:miter;stroke-width:0.8;"/>
   </g>
  </g>
  <g id="axes_2">
   <g id="patch_7">
    <path d="M 68.655 589.72 
L 828.97 589.72 
L 828.97 335.533085 
L 68.655 335.533085 
z
" style="fill:#ffffff;"/>
   </g>
   <g id="matplotlib.axis_3">
    <g id="xtick_10">
     <g id="line2d_31">
      <path clip-path="url(#p07abc87781)" d="M 103.214773 589.72 
L 103.214773 335.533085 
" style="fill:none;stroke:#b0b0b0;stroke-linecap:square;stroke-width:0.8;"/>
     </g>
     <g id="line2d_32">
      <g>
       <use style="stroke:#000000;stroke-width:0.8;" x="103.214773" xlink:href="#m57eb1a419f" y="589.72"/>
      </g>
     </g>
     <g id="text_17">
      <!-- 0 -->
      <g transform="translate(98.124773 608.8775)scale(0.16 -0.16)">
       <use xlink:href="#DejaVuSans-48"/>
      </g>
     </g>
    </g>
    <g id="xtick_11">
     <g id="line2d_33">
      <path clip-path="url(#p07abc87781)" d="M 241.453864 589.72 
L 241.453864 335.533085 
" style="fill:none;stroke:#b0b0b0;stroke-linecap:square;stroke-width:0.8;"/>
     </g>
     <g id="line2d_34">
      <g>
       <use style="stroke:#000000;stroke-width:0.8;" x="241.453864" xlink:href="#m57eb1a419f" y="589.72"/>
      </g>
     </g>
     <g id="text_18">
      <!-- 10 -->
      <g transform="translate(231.273864 608.8775)scale(0.16 -0.16)">
       <use xlink:href="#DejaVuSans-49"/>
       <use x="63.623047" xlink:href="#DejaVuSans-48"/>
      </g>
     </g>
    </g>
    <g id="xtick_12">
     <g id="line2d_35">
      <path clip-path="url(#p07abc87781)" d="M 379.692955 589.72 
L 379.692955 335.533085 
" style="fill:none;stroke:#b0b0b0;stroke-linecap:square;stroke-width:0.8;"/>
     </g>
     <g id="line2d_36">
      <g>
       <use style="stroke:#000000;stroke-width:0.8;" x="379.692955" xlink:href="#m57eb1a419f" y="589.72"/>
      </g>
     </g>
     <g id="text_19">
      <!-- 20 -->
      <g transform="translate(369.512955 608.8775)scale(0.16 -0.16)">
       <use xlink:href="#DejaVuSans-50"/>
       <use x="63.623047" xlink:href="#DejaVuSans-48"/>
      </g>
     </g>
    </g>
    <g id="xtick_13">
     <g id="line2d_37">
      <path clip-path="url(#p07abc87781)" d="M 517.932045 589.72 
L 517.932045 335.533085 
" style="fill:none;stroke:#b0b0b0;stroke-linecap:square;stroke-width:0.8;"/>
     </g>
     <g id="line2d_38">
      <g>
       <use style="stroke:#000000;stroke-width:0.8;" x="517.932045" xlink:href="#m57eb1a419f" y="589.72"/>
      </g>
     </g>
     <g id="text_20">
      <!-- 30 -->
      <g transform="translate(507.752045 608.8775)scale(0.16 -0.16)">
       <defs>
        <path d="M 40.578125 39.3125 
Q 47.65625 37.796875 51.625 33 
Q 55.609375 28.21875 55.609375 21.1875 
Q 55.609375 10.40625 48.1875 4.484375 
Q 40.765625 -1.421875 27.09375 -1.421875 
Q 22.515625 -1.421875 17.65625 -0.515625 
Q 12.796875 0.390625 7.625 2.203125 
L 7.625 11.71875 
Q 11.71875 9.328125 16.59375 8.109375 
Q 21.484375 6.890625 26.8125 6.890625 
Q 36.078125 6.890625 40.9375 10.546875 
Q 45.796875 14.203125 45.796875 21.1875 
Q 45.796875 27.640625 41.28125 31.265625 
Q 36.765625 34.90625 28.71875 34.90625 
L 20.21875 34.90625 
L 20.21875 43.015625 
L 29.109375 43.015625 
Q 36.375 43.015625 40.234375 45.921875 
Q 44.09375 48.828125 44.09375 54.296875 
Q 44.09375 59.90625 40.109375 62.90625 
Q 36.140625 65.921875 28.71875 65.921875 
Q 24.65625 65.921875 20.015625 65.03125 
Q 15.375 64.15625 9.8125 62.3125 
L 9.8125 71.09375 
Q 15.4375 72.65625 20.34375 73.4375 
Q 25.25 74.21875 29.59375 74.21875 
Q 40.828125 74.21875 47.359375 69.109375 
Q 53.90625 64.015625 53.90625 55.328125 
Q 53.90625 49.265625 50.4375 45.09375 
Q 46.96875 40.921875 40.578125 39.3125 
z
" id="DejaVuSans-51"/>
       </defs>
       <use xlink:href="#DejaVuSans-51"/>
       <use x="63.623047" xlink:href="#DejaVuSans-48"/>
      </g>
     </g>
    </g>
    <g id="xtick_14">
     <g id="line2d_39">
      <path clip-path="url(#p07abc87781)" d="M 656.171136 589.72 
L 656.171136 335.533085 
" style="fill:none;stroke:#b0b0b0;stroke-linecap:square;stroke-width:0.8;"/>
     </g>
     <g id="line2d_40">
      <g>
       <use style="stroke:#000000;stroke-width:0.8;" x="656.171136" xlink:href="#m57eb1a419f" y="589.72"/>
      </g>
     </g>
     <g id="text_21">
      <!-- 40 -->
      <g transform="translate(645.991136 608.8775)scale(0.16 -0.16)">
       <use xlink:href="#DejaVuSans-52"/>
       <use x="63.623047" xlink:href="#DejaVuSans-48"/>
      </g>
     </g>
    </g>
    <g id="xtick_15">
     <g id="line2d_41">
      <path clip-path="url(#p07abc87781)" d="M 794.410227 589.72 
L 794.410227 335.533085 
" style="fill:none;stroke:#b0b0b0;stroke-linecap:square;stroke-width:0.8;"/>
     </g>
     <g id="line2d_42">
      <g>
       <use style="stroke:#000000;stroke-width:0.8;" x="794.410227" xlink:href="#m57eb1a419f" y="589.72"/>
      </g>
     </g>
     <g id="text_22">
      <!-- 50 -->
      <g transform="translate(784.230227 608.8775)scale(0.16 -0.16)">
       <use xlink:href="#DejaVuSans-53"/>
       <use x="63.623047" xlink:href="#DejaVuSans-48"/>
      </g>
     </g>
    </g>
    <g id="text_23">
     <!-- Frequency -->
     <g transform="translate(407.485 628.3625)scale(0.16 -0.16)">
      <defs>
       <path d="M 9.8125 72.90625 
L 51.703125 72.90625 
L 51.703125 64.59375 
L 19.671875 64.59375 
L 19.671875 43.109375 
L 48.578125 43.109375 
L 48.578125 34.8125 
L 19.671875 34.8125 
L 19.671875 0 
L 9.8125 0 
z
" id="DejaVuSans-70"/>
       <path d="M 41.109375 46.296875 
Q 39.59375 47.171875 37.8125 47.578125 
Q 36.03125 48 33.890625 48 
Q 26.265625 48 22.1875 43.046875 
Q 18.109375 38.09375 18.109375 28.8125 
L 18.109375 0 
L 9.078125 0 
L 9.078125 54.6875 
L 18.109375 54.6875 
L 18.109375 46.1875 
Q 20.953125 51.171875 25.484375 53.578125 
Q 30.03125 56 36.53125 56 
Q 37.453125 56 38.578125 55.875 
Q 39.703125 55.765625 41.0625 55.515625 
z
" id="DejaVuSans-114"/>
       <path d="M 14.796875 27.296875 
Q 14.796875 17.390625 18.875 11.75 
Q 22.953125 6.109375 30.078125 6.109375 
Q 37.203125 6.109375 41.296875 11.75 
Q 45.40625 17.390625 45.40625 27.296875 
Q 45.40625 37.203125 41.296875 42.84375 
Q 37.203125 48.484375 30.078125 48.484375 
Q 22.953125 48.484375 18.875 42.84375 
Q 14.796875 37.203125 14.796875 27.296875 
z
M 45.40625 8.203125 
Q 42.578125 3.328125 38.25 0.953125 
Q 33.9375 -1.421875 27.875 -1.421875 
Q 17.96875 -1.421875 11.734375 6.484375 
Q 5.515625 14.40625 5.515625 27.296875 
Q 5.515625 40.1875 11.734375 48.09375 
Q 17.96875 56 27.875 56 
Q 33.9375 56 38.25 53.625 
Q 42.578125 51.265625 45.40625 46.390625 
L 45.40625 54.6875 
L 54.390625 54.6875 
L 54.390625 -20.796875 
L 45.40625 -20.796875 
z
" id="DejaVuSans-113"/>
       <path d="M 8.5 21.578125 
L 8.5 54.6875 
L 17.484375 54.6875 
L 17.484375 21.921875 
Q 17.484375 14.15625 20.5 10.265625 
Q 23.53125 6.390625 29.59375 6.390625 
Q 36.859375 6.390625 41.078125 11.03125 
Q 45.3125 15.671875 45.3125 23.6875 
L 45.3125 54.6875 
L 54.296875 54.6875 
L 54.296875 0 
L 45.3125 0 
L 45.3125 8.40625 
Q 42.046875 3.421875 37.71875 1 
Q 33.40625 -1.421875 27.6875 -1.421875 
Q 18.265625 -1.421875 13.375 4.4375 
Q 8.5 10.296875 8.5 21.578125 
z
M 31.109375 56 
z
" id="DejaVuSans-117"/>
       <path d="M 48.78125 52.59375 
L 48.78125 44.1875 
Q 44.96875 46.296875 41.140625 47.34375 
Q 37.3125 48.390625 33.40625 48.390625 
Q 24.65625 48.390625 19.8125 42.84375 
Q 14.984375 37.3125 14.984375 27.296875 
Q 14.984375 17.28125 19.8125 11.734375 
Q 24.65625 6.203125 33.40625 6.203125 
Q 37.3125 6.203125 41.140625 7.25 
Q 44.96875 8.296875 48.78125 10.40625 
L 48.78125 2.09375 
Q 45.015625 0.34375 40.984375 -0.53125 
Q 36.96875 -1.421875 32.421875 -1.421875 
Q 20.0625 -1.421875 12.78125 6.34375 
Q 5.515625 14.109375 5.515625 27.296875 
Q 5.515625 40.671875 12.859375 48.328125 
Q 20.21875 56 33.015625 56 
Q 37.15625 56 41.109375 55.140625 
Q 45.0625 54.296875 48.78125 52.59375 
z
" id="DejaVuSans-99"/>
       <path d="M 32.171875 -5.078125 
Q 28.375 -14.84375 24.75 -17.8125 
Q 21.140625 -20.796875 15.09375 -20.796875 
L 7.90625 -20.796875 
L 7.90625 -13.28125 
L 13.1875 -13.28125 
Q 16.890625 -13.28125 18.9375 -11.515625 
Q 21 -9.765625 23.484375 -3.21875 
L 25.09375 0.875 
L 2.984375 54.6875 
L 12.5 54.6875 
L 29.59375 11.921875 
L 46.6875 54.6875 
L 56.203125 54.6875 
z
" id="DejaVuSans-121"/>
      </defs>
      <use xlink:href="#DejaVuSans-70"/>
      <use x="50.269531" xlink:href="#DejaVuSans-114"/>
      <use x="89.132812" xlink:href="#DejaVuSans-101"/>
      <use x="150.65625" xlink:href="#DejaVuSans-113"/>
      <use x="214.132812" xlink:href="#DejaVuSans-117"/>
      <use x="277.511719" xlink:href="#DejaVuSans-101"/>
      <use x="339.035156" xlink:href="#DejaVuSans-110"/>
      <use x="402.414062" xlink:href="#DejaVuSans-99"/>
      <use x="457.394531" xlink:href="#DejaVuSans-121"/>
     </g>
    </g>
   </g>
   <g id="matplotlib.axis_4">
    <g id="ytick_6">
     <g id="line2d_43">
      <path clip-path="url(#p07abc87781)" d="M 68.655 578.386934 
L 828.97 578.386934 
" style="fill:none;stroke:#b0b0b0;stroke-linecap:square;stroke-width:0.8;"/>
     </g>
     <g id="line2d_44">
      <g>
       <use style="stroke:#000000;stroke-width:0.8;" x="68.655" xlink:href="#m03eb3bfa76" y="578.386934"/>
      </g>
     </g>
     <g id="text_24">
      <!-- 0.0 -->
      <g transform="translate(36.21 584.465684)scale(0.16 -0.16)">
       <use xlink:href="#DejaVuSans-48"/>
       <use x="63.623047" xlink:href="#DejaVuSans-46"/>
       <use x="95.410156" xlink:href="#DejaVuSans-48"/>
      </g>
     </g>
    </g>
    <g id="ytick_7">
     <g id="line2d_45">
      <path clip-path="url(#p07abc87781)" d="M 68.655 529.865047 
L 828.97 529.865047 
" style="fill:none;stroke:#b0b0b0;stroke-linecap:square;stroke-width:0.8;"/>
     </g>
     <g id="line2d_46">
      <g>
       <use style="stroke:#000000;stroke-width:0.8;" x="68.655" xlink:href="#m03eb3bfa76" y="529.865047"/>
      </g>
     </g>
     <g id="text_25">
      <!-- 0.2 -->
      <g transform="translate(36.21 535.943797)scale(0.16 -0.16)">
       <use xlink:href="#DejaVuSans-48"/>
       <use x="63.623047" xlink:href="#DejaVuSans-46"/>
       <use x="95.410156" xlink:href="#DejaVuSans-50"/>
      </g>
     </g>
    </g>
    <g id="ytick_8">
     <g id="line2d_47">
      <path clip-path="url(#p07abc87781)" d="M 68.655 481.343159 
L 828.97 481.343159 
" style="fill:none;stroke:#b0b0b0;stroke-linecap:square;stroke-width:0.8;"/>
     </g>
     <g id="line2d_48">
      <g>
       <use style="stroke:#000000;stroke-width:0.8;" x="68.655" xlink:href="#m03eb3bfa76" y="481.343159"/>
      </g>
     </g>
     <g id="text_26">
      <!-- 0.4 -->
      <g transform="translate(36.21 487.421909)scale(0.16 -0.16)">
       <use xlink:href="#DejaVuSans-48"/>
       <use x="63.623047" xlink:href="#DejaVuSans-46"/>
       <use x="95.410156" xlink:href="#DejaVuSans-52"/>
      </g>
     </g>
    </g>
    <g id="ytick_9">
     <g id="line2d_49">
      <path clip-path="url(#p07abc87781)" d="M 68.655 432.821272 
L 828.97 432.821272 
" style="fill:none;stroke:#b0b0b0;stroke-linecap:square;stroke-width:0.8;"/>
     </g>
     <g id="line2d_50">
      <g>
       <use style="stroke:#000000;stroke-width:0.8;" x="68.655" xlink:href="#m03eb3bfa76" y="432.821272"/>
      </g>
     </g>
     <g id="text_27">
      <!-- 0.6 -->
      <g transform="translate(36.21 438.900022)scale(0.16 -0.16)">
       <defs>
        <path d="M 33.015625 40.375 
Q 26.375 40.375 22.484375 35.828125 
Q 18.609375 31.296875 18.609375 23.390625 
Q 18.609375 15.53125 22.484375 10.953125 
Q 26.375 6.390625 33.015625 6.390625 
Q 39.65625 6.390625 43.53125 10.953125 
Q 47.40625 15.53125 47.40625 23.390625 
Q 47.40625 31.296875 43.53125 35.828125 
Q 39.65625 40.375 33.015625 40.375 
z
M 52.59375 71.296875 
L 52.59375 62.3125 
Q 48.875 64.0625 45.09375 64.984375 
Q 41.3125 65.921875 37.59375 65.921875 
Q 27.828125 65.921875 22.671875 59.328125 
Q 17.53125 52.734375 16.796875 39.40625 
Q 19.671875 43.65625 24.015625 45.921875 
Q 28.375 48.1875 33.59375 48.1875 
Q 44.578125 48.1875 50.953125 41.515625 
Q 57.328125 34.859375 57.328125 23.390625 
Q 57.328125 12.15625 50.6875 5.359375 
Q 44.046875 -1.421875 33.015625 -1.421875 
Q 20.359375 -1.421875 13.671875 8.265625 
Q 6.984375 17.96875 6.984375 36.375 
Q 6.984375 53.65625 15.1875 63.9375 
Q 23.390625 74.21875 37.203125 74.21875 
Q 40.921875 74.21875 44.703125 73.484375 
Q 48.484375 72.75 52.59375 71.296875 
z
" id="DejaVuSans-54"/>
       </defs>
       <use xlink:href="#DejaVuSans-48"/>
       <use x="63.623047" xlink:href="#DejaVuSans-46"/>
       <use x="95.410156" xlink:href="#DejaVuSans-54"/>
      </g>
     </g>
    </g>
    <g id="ytick_10">
     <g id="line2d_51">
      <path clip-path="url(#p07abc87781)" d="M 68.655 384.299384 
L 828.97 384.299384 
" style="fill:none;stroke:#b0b0b0;stroke-linecap:square;stroke-width:0.8;"/>
     </g>
     <g id="line2d_52">
      <g>
       <use style="stroke:#000000;stroke-width:0.8;" x="68.655" xlink:href="#m03eb3bfa76" y="384.299384"/>
      </g>
     </g>
     <g id="text_28">
      <!-- 0.8 -->
      <g transform="translate(36.21 390.378134)scale(0.16 -0.16)">
       <defs>
        <path d="M 31.78125 34.625 
Q 24.75 34.625 20.71875 30.859375 
Q 16.703125 27.09375 16.703125 20.515625 
Q 16.703125 13.921875 20.71875 10.15625 
Q 24.75 6.390625 31.78125 6.390625 
Q 38.8125 6.390625 42.859375 10.171875 
Q 46.921875 13.96875 46.921875 20.515625 
Q 46.921875 27.09375 42.890625 30.859375 
Q 38.875 34.625 31.78125 34.625 
z
M 21.921875 38.8125 
Q 15.578125 40.375 12.03125 44.71875 
Q 8.5 49.078125 8.5 55.328125 
Q 8.5 64.0625 14.71875 69.140625 
Q 20.953125 74.21875 31.78125 74.21875 
Q 42.671875 74.21875 48.875 69.140625 
Q 55.078125 64.0625 55.078125 55.328125 
Q 55.078125 49.078125 51.53125 44.71875 
Q 48 40.375 41.703125 38.8125 
Q 48.828125 37.15625 52.796875 32.3125 
Q 56.78125 27.484375 56.78125 20.515625 
Q 56.78125 9.90625 50.3125 4.234375 
Q 43.84375 -1.421875 31.78125 -1.421875 
Q 19.734375 -1.421875 13.25 4.234375 
Q 6.78125 9.90625 6.78125 20.515625 
Q 6.78125 27.484375 10.78125 32.3125 
Q 14.796875 37.15625 21.921875 38.8125 
z
M 18.3125 54.390625 
Q 18.3125 48.734375 21.84375 45.5625 
Q 25.390625 42.390625 31.78125 42.390625 
Q 38.140625 42.390625 41.71875 45.5625 
Q 45.3125 48.734375 45.3125 54.390625 
Q 45.3125 60.0625 41.71875 63.234375 
Q 38.140625 66.40625 31.78125 66.40625 
Q 25.390625 66.40625 21.84375 63.234375 
Q 18.3125 60.0625 18.3125 54.390625 
z
" id="DejaVuSans-56"/>
       </defs>
       <use xlink:href="#DejaVuSans-48"/>
       <use x="63.623047" xlink:href="#DejaVuSans-46"/>
       <use x="95.410156" xlink:href="#DejaVuSans-56"/>
      </g>
     </g>
    </g>
    <g id="ytick_11">
     <g id="line2d_53">
      <path clip-path="url(#p07abc87781)" d="M 68.655 335.777497 
L 828.97 335.777497 
" style="fill:none;stroke:#b0b0b0;stroke-linecap:square;stroke-width:0.8;"/>
     </g>
     <g id="line2d_54">
      <g>
       <use style="stroke:#000000;stroke-width:0.8;" x="68.655" xlink:href="#m03eb3bfa76" y="335.777497"/>
      </g>
     </g>
     <g id="text_29">
      <!-- 1.0 -->
      <g transform="translate(36.21 341.856247)scale(0.16 -0.16)">
       <use xlink:href="#DejaVuSans-49"/>
       <use x="63.623047" xlink:href="#DejaVuSans-46"/>
       <use x="95.410156" xlink:href="#DejaVuSans-48"/>
      </g>
     </g>
    </g>
    <g id="text_30">
     <!-- coherence -->
     <g transform="translate(28.8825 504.335292)rotate(-90)scale(0.16 -0.16)">
      <defs>
       <path d="M 30.609375 48.390625 
Q 23.390625 48.390625 19.1875 42.75 
Q 14.984375 37.109375 14.984375 27.296875 
Q 14.984375 17.484375 19.15625 11.84375 
Q 23.34375 6.203125 30.609375 6.203125 
Q 37.796875 6.203125 41.984375 11.859375 
Q 46.1875 17.53125 46.1875 27.296875 
Q 46.1875 37.015625 41.984375 42.703125 
Q 37.796875 48.390625 30.609375 48.390625 
z
M 30.609375 56 
Q 42.328125 56 49.015625 48.375 
Q 55.71875 40.765625 55.71875 27.296875 
Q 55.71875 13.875 49.015625 6.21875 
Q 42.328125 -1.421875 30.609375 -1.421875 
Q 18.84375 -1.421875 12.171875 6.21875 
Q 5.515625 13.875 5.515625 27.296875 
Q 5.515625 40.765625 12.171875 48.375 
Q 18.84375 56 30.609375 56 
z
" id="DejaVuSans-111"/>
       <path d="M 54.890625 33.015625 
L 54.890625 0 
L 45.90625 0 
L 45.90625 32.71875 
Q 45.90625 40.484375 42.875 44.328125 
Q 39.84375 48.1875 33.796875 48.1875 
Q 26.515625 48.1875 22.3125 43.546875 
Q 18.109375 38.921875 18.109375 30.90625 
L 18.109375 0 
L 9.078125 0 
L 9.078125 75.984375 
L 18.109375 75.984375 
L 18.109375 46.1875 
Q 21.34375 51.125 25.703125 53.5625 
Q 30.078125 56 35.796875 56 
Q 45.21875 56 50.046875 50.171875 
Q 54.890625 44.34375 54.890625 33.015625 
z
" id="DejaVuSans-104"/>
      </defs>
      <use xlink:href="#DejaVuSans-99"/>
      <use x="54.980469" xlink:href="#DejaVuSans-111"/>
      <use x="116.162109" xlink:href="#DejaVuSans-104"/>
      <use x="179.541016" xlink:href="#DejaVuSans-101"/>
      <use x="241.064453" xlink:href="#DejaVuSans-114"/>
      <use x="279.927734" xlink:href="#DejaVuSans-101"/>
      <use x="341.451172" xlink:href="#DejaVuSans-110"/>
      <use x="404.830078" xlink:href="#DejaVuSans-99"/>
      <use x="459.810547" xlink:href="#DejaVuSans-101"/>
     </g>
    </g>
   </g>
   <g id="line2d_55">
    <path clip-path="url(#p07abc87781)" d="M 103.214773 569.4135 
L 108.614737 562.660422 
L 114.014702 563.152947 
L 119.414666 550.068565 
L 124.814631 546.529872 
L 130.214595 547.351776 
L 135.61456 568.936008 
L 141.014524 575.52173 
L 146.414489 529.822918 
L 151.814453 567.000224 
L 157.214418 569.953844 
L 162.614382 515.686275 
L 168.014347 566.080304 
L 173.414311 577.605426 
L 178.814276 566.235807 
L 184.21424 577.729388 
L 189.614205 557.90491 
L 195.014169 548.272582 
L 200.414134 566.531323 
L 205.814098 531.071099 
L 211.214063 570.565653 
L 216.614027 542.467203 
L 222.013991 536.490234 
L 227.413956 570.111915 
L 232.81392 535.166258 
L 238.213885 557.463334 
L 243.613849 563.060061 
L 249.013814 577.452026 
L 254.413778 572.966544 
L 259.813743 576.564002 
L 265.213707 570.356287 
L 270.613672 568.87224 
L 276.013636 531.667506 
L 281.413601 546.782532 
L 286.813565 571.635151 
L 292.21353 546.159554 
L 297.613494 541.713701 
L 303.013459 559.825388 
L 308.413423 554.377992 
L 313.813388 560.304017 
L 319.213352 549.582802 
L 324.613317 544.714925 
L 330.013281 546.253976 
L 335.413246 572.302173 
L 340.81321 578.056777 
L 346.213175 571.892809 
L 351.613139 560.29396 
L 357.013104 571.302946 
L 362.413068 561.158623 
L 367.813033 556.558411 
L 373.212997 410.590152 
L 378.612962 347.087036 
L 384.012926 352.007387 
L 389.412891 552.083205 
L 394.812855 560.978751 
L 400.21282 559.097509 
L 405.612784 562.250221 
L 411.012749 561.870395 
L 416.412713 577.850966 
L 421.812678 576.064312 
L 427.212642 577.882176 
L 432.612607 577.640231 
L 438.012571 558.328313 
L 443.412536 574.627853 
L 448.8125 558.422775 
L 454.212464 550.860567 
L 459.612429 505.552028 
L 465.012393 554.853351 
L 470.412358 503.954891 
L 475.812322 571.940567 
L 481.212287 554.382424 
L 486.612251 551.953876 
L 492.012216 534.122494 
L 497.41218 530.600902 
L 502.812145 575.552463 
L 508.212109 569.887777 
L 513.612074 578.166049 
L 519.012038 573.862253 
L 524.412003 550.094525 
L 529.811967 528.001753 
L 535.211932 552.097952 
L 540.611896 570.023261 
L 546.011861 577.437442 
L 551.411825 540.546175 
L 556.81179 557.679291 
L 562.211754 562.075061 
L 567.611719 573.964935 
L 573.011683 566.306359 
L 578.411648 572.754396 
L 583.811612 558.500455 
L 589.211577 553.246928 
L 594.611541 573.025888 
L 600.011506 544.771759 
L 605.41147 569.542253 
L 610.811435 564.788406 
L 616.211399 574.855143 
L 621.611364 507.109053 
L 627.011328 563.5323 
L 632.411293 558.42626 
L 637.811257 566.51749 
L 643.211222 562.980161 
L 648.611186 570.10576 
L 654.011151 546.88891 
L 659.411115 564.013346 
L 664.81108 564.711737 
L 670.211044 558.776011 
L 675.611009 550.76981 
L 681.010973 574.728674 
L 686.410937 566.073284 
L 691.810902 486.18568 
L 697.210866 561.724864 
L 702.610831 577.904716 
L 708.010795 561.205697 
L 713.41076 540.098351 
L 718.810724 569.681567 
L 724.210689 539.347512 
L 729.610653 469.711442 
L 735.010618 503.535166 
L 740.410582 556.852612 
L 745.810547 551.117376 
L 751.210511 551.828226 
L 756.610476 568.266437 
L 762.01044 552.386594 
L 767.410405 577.355363 
L 772.810369 572.344589 
L 778.210334 574.628836 
L 783.610298 549.017187 
L 789.010263 576.438409 
L 794.410227 572.930336 
L 794.410227 572.930336 
" style="fill:none;stroke:#1f77b4;stroke-linecap:square;stroke-width:1.5;"/>
   </g>
   <g id="patch_8">
    <path d="M 68.655 589.72 
L 68.655 335.533085 
" style="fill:none;stroke:#000000;stroke-linecap:square;stroke-linejoin:miter;stroke-width:0.8;"/>
   </g>
   <g id="patch_9">
    <path d="M 828.97 589.72 
L 828.97 335.533085 
" style="fill:none;stroke:#000000;stroke-linecap:square;stroke-linejoin:miter;stroke-width:0.8;"/>
   </g>
   <g id="patch_10">
    <path d="M 68.655 589.72 
L 828.97 589.72 
" style="fill:none;stroke:#000000;stroke-linecap:square;stroke-linejoin:miter;stroke-width:0.8;"/>
   </g>
   <g id="patch_11">
    <path d="M 68.655 335.533085 
L 828.97 335.533085 
" style="fill:none;stroke:#000000;stroke-linecap:square;stroke-linejoin:miter;stroke-width:0.8;"/>
   </g>
  </g>
 </g>
 <defs>
  <clipPath id="p51dac6debd">
   <rect height="254.186915" width="760.315" x="68.655" y="17.28"/>
  </clipPath>
  <clipPath id="p07abc87781">
   <rect height="254.186915" width="760.315" x="68.655" y="335.533085"/>
  </clipPath>
 </defs>
</svg>
